<svg xml:space="preserve" style="enable-background:new 0 0 184 204;" viewBox="0 0 184 204" y="0px" x="0px" xmlns:xlink="http://www.w3.org/1999/xlink" xmlns="http://www.w3.org/2000/svg" id="Layer_1" version="1.1">
<style type="text/css">
	.st0{display:none;fill:#FFFFFF;}
	.st1{display:none;}
	.st2{display:inline;}
	.st3{fill:#8C5B3F;}
	.st4{fill:#F8E5C4;}
	.st5{fill:#FCF5E7;}
	.st6{display:inline;opacity:0.5;}
	.st7{display:inline;opacity:0.49;}
	.st8{fill:#895630;}
	.st9{opacity:0.49;}
	.st10{fill:#FFFFFF;}
	.st11{fill:#663800;}
	.st12{display:inline;opacity:0.71;fill:url(#SVGID_1_);}
	
		.st13{display:inline;fill:none;stroke:#8B617B;stroke-width:1.395;stroke-linecap:round;stroke-linejoin:round;stroke-miterlimit:10;}
	.st14{display:inline;fill:#8C5B3F;}
	.st15{display:inline;opacity:0.8;fill:#A66631;}
	.st16{display:inline;opacity:0.71;fill:url(#SVGID_2_);}
	.st17{display:inline;opacity:0.71;fill:url(#SVGID_3_);}
	.st18{display:inline;fill:url(#SVGID_4_);}
	.st19{display:inline;fill:url(#SVGID_5_);}
	.st20{display:inline;fill:url(#SVGID_6_);}
	.st21{display:inline;fill:url(#SVGID_7_);}
	.st22{display:inline;fill:url(#SVGID_8_);}
	.st23{display:inline;fill:url(#SVGID_9_);}
	.st24{display:inline;fill:url(#SVGID_10_);}
	.st25{display:inline;fill:url(#SVGID_11_);}
	.st26{display:inline;opacity:0.29;fill:url(#SVGID_12_);}
	.st27{display:inline;fill:url(#SVGID_13_);}
	.st28{display:inline;opacity:0.29;fill:url(#SVGID_14_);}
	.st29{display:inline;fill:url(#SVGID_15_);}
	.st30{display:inline;fill:url(#SVGID_16_);}
	.st31{fill:none;stroke:#996633;stroke-width:1.0929;stroke-linecap:round;stroke-linejoin:round;stroke-miterlimit:10;}
	.st32{opacity:0.49;fill:#996633;}
	.st33{fill:#774829;}
	.st34{fill:#76645D;}
	.st35{display:inline;fill:url(#SVGID_17_);}
	.st36{display:inline;fill:url(#SVGID_18_);}
	.st37{display:inline;fill:url(#SVGID_19_);}
	.st38{opacity:0.71;}
	.st39{display:inline;fill:url(#SVGID_20_);}
	.st40{display:inline;fill:url(#SVGID_21_);}
	.st41{display:inline;fill:url(#SVGID_22_);}
	.st42{opacity:0.49;fill:#FFFFFF;}
	.st43{fill:none;stroke:#FDC71F;stroke-width:0.6169;stroke-linecap:round;stroke-linejoin:round;stroke-miterlimit:10;}
	.st44{display:inline;fill:url(#SVGID_23_);}
	.st45{display:inline;fill:url(#SVGID_24_);}
	.st46{fill:url(#SVGID_25_);}
	.st47{fill:none;stroke:#91607B;stroke-width:1.4361;stroke-linecap:round;stroke-linejoin:round;stroke-miterlimit:10;}
	.st48{fill:#FDC71F;}
	.st49{opacity:0.43;fill:#FDC71F;}
</style>
<rect height="200" width="184" class="st0" y="0.3" x="0.3"></rect>
<g class="st1">
	<g class="st2">
		<path d="M868.9,36c-1.4,0-2.5,1.1-2.5,2.5c0-1.4-1.1-2.5-2.5-2.5c1.4,0,2.5-1.1,2.5-2.5C866.4,34.9,867.5,36,868.9,36
			z" class="st3"></path>
	</g>
	<g class="st2">
		<path d="M889.8,47c-0.8,0-1.5,0.7-1.5,1.5c0-0.8-0.7-1.5-1.5-1.5c0.8,0,1.5-0.7,1.5-1.5C888.3,46.3,889,47,889.8,47z" class="st3"></path>
	</g>
	<g class="st2">
		<path d="M837,51.6c-0.8,0-1.5,0.7-1.5,1.5c0-0.8-0.7-1.5-1.5-1.5c0.8,0,1.5-0.7,1.5-1.5C835.5,51,836.2,51.6,837,51.6
			z" class="st3"></path>
	</g>
	<g class="st2">
		<path d="M863.9,80.7c-1.8,0.5-3.6,1.1-5.5,1.7c-14.2,4.9-23.9-1.7-26.1-3.5c3.2-1.1,7.9-3.1,15.6,0.4
			C853.9,82,858,81.7,863.9,80.7z" class="st4"></path>
	</g>
	<g class="st2">
		<path d="M885.6,76.7c-4.6,8.9-13.4,14.8-27.6,14.8c-12.3,0-20.8-4.9-25.9-12.5c0,0,0.1,0,0.1,0c0,0,0,0,0.1,0
			c2.3,1.8,11.9,8.4,26.1,3.5c1.9-0.7,3.7-1.2,5.5-1.7C879.5,75.4,882.2,75.9,885.6,76.7z" class="st5"></path>
	</g>
	<g class="st2">
		<path d="M858,93.8c-21.3,0-34.5-13.4-35.4-36c0-0.8,0.3-1.5,0.8-2.1c0.5-0.6,1.3-0.9,2.1-0.9h65.1
			c0.8,0,1.5,0.3,2.1,0.9c0.5,0.6,0.8,1.3,0.8,2.1c-0.2,5.1-1,9.8-2.4,14c-1.5,4.4-3.6,8.3-6.4,11.4C878.6,90.2,869.6,93.8,858,93.8
			z M825.5,56.1c-0.4,0-0.8,0.2-1.2,0.5c-0.3,0.3-0.5,0.7-0.4,1.2c0.9,21.8,13.6,34.7,34.1,34.7c12.3,0,33.1-4.5,34.1-34.7
			c0-0.4-0.1-0.9-0.4-1.2c-0.3-0.3-0.7-0.5-1.1-0.5H825.5z" class="st3"></path>
	</g>
	<g class="st2">
		<g>
			<path d="M886.9,80c-0.3,0-0.6-0.3-0.6-0.6c0-0.4,0.2-0.7,0.6-0.7c7.9-0.7,14-5.2,14.4-10.8c0.2-2.4-0.3-4.4-1.4-5.6
				c-1.2-1.3-3-1.6-4.2-1.6c-0.9,0-1.8,0.2-2.6,0.6c-0.3,0.1-0.7,0-0.8-0.3c-0.1-0.3,0-0.7,0.3-0.8c1-0.4,2-0.7,3.1-0.7
				c1.5,0,3.6,0.3,5.2,2c1.4,1.5,2,3.7,1.8,6.5C902,74.2,895.5,79.2,886.9,80C886.9,80,886.9,80,886.9,80z" class="st3"></path>
		</g>
		<g>
			<path d="M884.8,84.7c-0.6,0-1.2,0-1.8-0.1c-0.4,0-0.6-0.3-0.6-0.7c0-0.4,0.3-0.6,0.7-0.6c0.5,0,1.1,0.1,1.7,0.1
				c11.2,0,20.4-6.7,21-15.2c0.3-4.7-1.3-7.5-2.7-9.1c-1.8-2-4.6-3.1-7.7-3.1c-1.1,0-2.2,0.2-3.3,0.5c-0.3,0.1-0.7-0.1-0.8-0.4
				c-0.1-0.3,0.1-0.7,0.4-0.8c1.2-0.4,2.4-0.6,3.7-0.6c3.4,0,6.5,1.2,8.6,3.5c1.6,1.7,3.4,4.8,3,10
				C906.4,77.7,896.9,84.7,884.8,84.7z" class="st3"></path>
		</g>
	</g>
	<g class="st6">
		<g>
			<path d="M827.1,65.9c0,0,4.2,19.6,22.2,23C849.3,88.9,836.3,81.8,827.1,65.9z" class="st3"></path>
		</g>
		<g>
			<path d="M877.3,58.2h12.5c0,0-0.2,11.4-5,16.8C884.8,75,890.9,60.3,877.3,58.2z" class="st3"></path>
		</g>
		<g>
			<path d="M894.8,56.8c0,0,7-0.2,9.3,5.8C904.1,62.6,901.8,58.1,894.8,56.8z" class="st3"></path>
		</g>
		<g>
			<path d="M903.2,72.1c0,0-2.4,6.9-12,9C891.2,81.1,899.5,77.9,903.2,72.1z" class="st3"></path>
		</g>
	</g>
	<g class="st2">
		<ellipse ry="3.2" rx="21.3" cy="104.9" cx="858" class="st3"></ellipse>
	</g>
	<g class="st2">
		<g>
			<g>
				<path d="M816-22.9c-0.5,0-1-0.1-1.5-0.2c-4.2-1-6.8-5.9-7.1-6.4c-0.1-0.2-0.2-0.4-0.3-0.7
					c-1.3-2.5-3.1-6.3-12.8-9.6c-5.7-1.9-8.7-5.4-10.2-7.9c-1.6-2.8-1.9-5.1-1.9-5.2c0-0.4,0.2-0.7,0.6-0.7c0.3,0,0.7,0.2,0.7,0.6
					c0,0,0.2,2.2,1.7,4.7c2,3.4,5.2,5.9,9.5,7.3c10.1,3.4,12.2,7.5,13.5,10.2c0.1,0.2,0.2,0.4,0.3,0.6c0.3,0.5,2.7,4.9,6.3,5.8
					c1.5,0.4,3.1,0,4.7-1.1c0.1,0,0.1-0.1,0.1-0.1c0,0,0-0.1,0-0.2c-1.2-1.7-3.4-4.7-3.9-6.1c-0.1-0.2-0.2-0.5-0.3-0.8
					c-0.7-1.8-1.7-4.3-4.4-7c-3.4-3.3-4-7.6-4.1-7.8c-0.1-0.3,0.2-0.7,0.5-0.7c0.4-0.1,0.7,0.2,0.7,0.5c0,0,0.7,4.1,3.7,7
					c2.9,2.8,4,5.6,4.7,7.4c0.1,0.3,0.2,0.6,0.3,0.8c0.4,0.9,1.8,3.1,3.8,5.8c0.2,0.3,0.3,0.7,0.3,1.1c-0.1,0.4-0.3,0.7-0.6,1
					C818.9-23.4,817.4-22.9,816-22.9z" class="st3"></path>
			</g>
			<g>
				<path d="M803.7-20.9c-3.5,0-8.2-9.6-8.6-11c-0.4-1.7-0.7-8-0.8-8.3c0-0.4,0.3-0.7,0.6-0.7c0.4,0,0.7,0.3,0.7,0.6
					c0,0.1,0.3,6.5,0.7,8.1c0.4,1.9,5.2,10.2,7.4,10.1c2.1-0.2,4.7-3.9,5.5-5.3c0.2-0.3,0.6-0.4,0.9-0.2c0.3,0.2,0.4,0.6,0.2,0.9
					c-0.3,0.6-3.4,5.7-6.5,6C803.8-20.9,803.7-20.9,803.7-20.9z" class="st3"></path>
			</g>
			<g>
				<path d="M805.8-26.2C805.8-26.2,805.8-26.2,805.8-26.2c-0.4-0.1-0.7-0.4-0.6-0.7c0,0,0.2-1.7-0.2-2.7
					c-0.7-1.5-2.6-4-3.3-4.1c-0.3,0-0.6-0.3-0.6-0.6c0-0.8-0.1-2.2-0.4-2.6c-0.2-0.3-0.1-0.7,0.2-0.9c0.3-0.2,0.7-0.1,0.9,0.2
					c0.5,0.7,0.6,2.2,0.6,2.9c1.6,0.8,3.3,3.8,3.7,4.7c0.6,1.4,0.3,3.4,0.3,3.5C806.4-26.4,806.1-26.2,805.8-26.2z" class="st3"></path>
			</g>
			<g>
				<path d="M793.8-23.6c-0.8,0-1.6-0.4-2.4-1.2c-2.3-2.6-3.4-9.1-3.1-11.5c0.4-3.4,1.9-5.7,3.6-5.7c0,0,0,0,0,0
					c0.4,0,0.6,0.3,0.6,0.6c0,0.4-0.3,0.6-0.6,0.6c0,0,0,0,0,0c-0.8,0-1.9,1.8-2.3,4.6c-0.3,2.2,0.7,8.2,2.8,10.5
					c0.5,0.5,0.9,0.8,1.4,0.8c0,0,0,0,0,0c2.9,0,3.7-2.3,3.8-2.4c0.1-0.3,0.5-0.5,0.8-0.4c0.3,0.1,0.5,0.5,0.4,0.8
					C798.8-26.7,797.7-23.7,793.8-23.6C793.8-23.6,793.8-23.6,793.8-23.6z" class="st3"></path>
			</g>
			<g>
				<path d="M787.9-26.2c-0.3,0-0.6,0-0.9-0.1c-1.6-0.5-2.8-1.6-3.7-3.1c-1.5-2.8-1.4-6.7-0.6-9
					c0.5-1.5,2.3-3.8,4.3-4.1c0.7-0.1,1.8,0,2.6,1.2c1,1.4,0.6,3.2,0.3,4.6c0,0.2-0.1,0.4-0.1,0.6c-0.1,0.3-0.4,0.6-0.7,0.5
					c-0.3-0.1-0.6-0.4-0.5-0.7c0-0.2,0.1-0.4,0.1-0.6c0.3-1.3,0.6-2.7-0.1-3.6c-0.4-0.5-0.8-0.8-1.4-0.7c-1.3,0.2-2.9,2.1-3.2,3.2
					c-0.7,2.1-0.8,5.5,0.5,8.1c0.7,1.3,1.7,2.2,2.9,2.5c0.5,0.2,1,0.1,1.3-0.1c0.4-0.3,0.7-0.8,0.8-1.5c0-0.3,0.4-0.6,0.7-0.6
					c0.3,0,0.6,0.4,0.6,0.7c-0.1,1-0.6,1.9-1.3,2.4C789-26.4,788.5-26.2,787.9-26.2z" class="st3"></path>
			</g>
			<g>
				<path d="M783-36.8c-0.1,0-0.2,0-0.2,0c-0.3-0.1-7.8-3.2-8.3-15c0-0.4,0.3-0.6,0.6-0.7c0.4,0,0.6,0.3,0.7,0.6
					c0.4,10.9,7.2,13.7,7.5,13.9c0.3,0.1,0.5,0.5,0.4,0.8C783.5-36.9,783.3-36.8,783-36.8z" class="st3"></path>
			</g>
			<g>
				<path d="M775.2-49.6c-0.1,0-0.3,0-0.4-0.1c-0.1-0.1-10.1-7.4-18-9.7c-0.3-0.1-0.5-0.5-0.4-0.8
					c0.1-0.3,0.5-0.5,0.8-0.4c8.2,2.4,18,9.6,18.4,9.9c0.3,0.2,0.3,0.6,0.1,0.9C775.6-49.7,775.4-49.6,775.2-49.6z" class="st3"></path>
			</g>
			<g>
				<path d="M819.7-26c-0.1,0-0.1,0-0.2,0c-0.3-0.1-0.5-0.4-0.4-0.8c0,0,0.6-2.4,0.5-4.5c-0.1-2.1-2.2-15.1-3.2-17.4
					c-1-2.1-9.9-9.6-18.5-13.8c-8.5-4.1-18.7-13.3-18.8-13.4c-0.3-0.2-0.3-0.6,0-0.9s0.6-0.3,0.9,0c0.1,0.1,10.2,9.1,18.5,13.2
					c8.7,4.2,17.9,11.9,19.1,14.4c1.2,2.6,3.3,15.8,3.4,17.9c0.1,2.3-0.6,4.8-0.6,4.9C820.2-26.2,820-26,819.7-26z" class="st3"></path>
			</g>
			<g>
				<path d="M817.9-23.2c-0.4,0-0.6-0.3-0.6-0.6c0-0.2,0.1-0.3,0.2-0.5c0.2-0.2,0.7-0.2,0.9,0c0.2,0.2,0.2,0.5,0.1,0.7
					C818.3-23.4,818.1-23.2,817.9-23.2z" class="st3"></path>
			</g>
			<g>
				<path d="M809.1-13.6C809-13.6,809-13.6,809.1-13.6c-0.9,0-2-0.7-2.7-1.6c-0.9-1-1.2-2.3-1.1-3.6
					c0.5-3.8,4.1-7.2,4.8-7.8l0.1-0.1c0.3-0.2,0.7-0.2,0.9,0c0.2,0.3,0.2,0.7,0,0.9l-0.1,0.1c-0.6,0.6-3.9,3.7-4.4,7.1
					c-0.2,1.2,0.3,2,0.8,2.6c0.6,0.7,1.3,1.1,1.7,1.1c0.3-0.1,1.5-1.1,6.5-7c0.2-0.3,0.6-0.3,0.9-0.1c0.3,0.2,0.3,0.6,0.1,0.9
					C810.5-13.9,809.5-13.6,809.1-13.6z" class="st3"></path>
			</g>
		</g>
		<g>
			<g>
				<path d="M811.9,17.8c-0.2,0-0.5-0.1-0.6-0.3c-0.2-0.3,0-0.7,0.3-0.9c3.1-1.6,5.7-4,7.7-7.1c0.7-1.1,1.3-2.2,1.8-3.4
					c3.7-9,1.6-19.4-5.6-27.1c-1.1-1.1-2.2-2.2-3.4-3.2c-0.3-0.2-0.6-0.5-0.9-0.7c-0.3-0.2-0.6-0.4-0.9-0.7c-1.4-1-3-1.8-4.6-2.4
					c-0.3-0.1-0.5-0.5-0.3-0.8c0.1-0.3,0.5-0.5,0.8-0.3c1.6,0.7,3.2,1.5,4.8,2.5c0.3,0.2,0.7,0.4,1,0.7c0.3,0.2,0.7,0.5,1,0.7
					c1.3,1,2.5,2.1,3.6,3.3c7.5,8.1,9.7,19,5.8,28.4c-0.5,1.2-1.1,2.5-1.9,3.6c-2.1,3.3-4.9,5.9-8.2,7.6
					C812.1,17.7,812,17.8,811.9,17.8z" class="st3"></path>
			</g>
			<g>
				<path d="M769.2-9.1c-0.2,0-0.3-0.1-0.5-0.2c-0.2-0.2-0.2-0.4-0.1-0.6c0.6-3.1,1.7-6.1,3.5-8.8
					c2.9-4.5,7.3-8.2,12.4-10.4c0.3-0.1,0.7,0,0.8,0.3c0.1,0.3,0,0.7-0.3,0.8c-4.9,2.1-9.1,5.6-11.8,9.9c-1.6,2.6-2.8,5.4-3.3,8.4
					c0,0.1-0.1,0.3-0.2,0.4C769.5-9.2,769.4-9.1,769.2-9.1z" class="st3"></path>
			</g>
			<g>
				<path d="M772.6-17.7c-0.2,0-0.3-0.1-0.5-0.2l-0.9-0.9c-2.1-2.1-2.2-5.4-0.4-7.8c1.9-2.5,5.5-6,11.7-8.2
					c0.3-0.1,0.7,0.1,0.8,0.4c0.1,0.3-0.1,0.7-0.4,0.8c-5.9,2.1-9.3,5.3-11.1,7.7c-1.4,1.9-1.3,4.4,0.3,6.1l0.9,0.9
					c0.2,0.3,0.2,0.7,0,0.9C772.9-17.8,772.8-17.7,772.6-17.7z" class="st3"></path>
			</g>
			<g>
				<path d="M822.9,11.1c-0.6,0-1.2-0.1-1.7-0.3l-1.5-0.5c-0.3-0.1-0.5-0.5-0.4-0.8c0.1-0.3,0.5-0.5,0.8-0.4l1.5,0.5
					c2.2,0.7,4.5-0.3,5.5-2.3c1.9-3.7,2.4-8.7,1.5-15.4c-1-7.7-4-13.5-9.4-18.3c-0.3-0.2-0.3-0.6-0.1-0.9c0.2-0.3,0.6-0.3,0.9-0.1
					c5.6,4.9,8.9,11.2,9.9,19.1c0.9,7,0.4,12.3-1.6,16.2C827.1,9.9,825,11.1,822.9,11.1z" class="st3"></path>
			</g>
			<g>
				<path d="M804.7-34.2c-0.1,0-0.1,0-0.2,0c-0.9-0.3-1.9-0.5-2.9-0.7c-0.3-0.1-0.6-0.4-0.5-0.7
					c0.1-0.3,0.4-0.6,0.7-0.5c1,0.2,2,0.4,3,0.7c0.3,0.1,0.5,0.4,0.4,0.8C805.2-34.4,804.9-34.2,804.7-34.2z" class="st3"></path>
			</g>
			<g>
				<path d="M812.5,20.6c-0.2,0-0.5-0.1-0.6-0.4c-0.1-0.3,0-0.7,0.3-0.8c7.2-3.2,10.1-9,10.2-9.2l0.6,0.3l0.5,0.3
					c-0.1,0.2-3.2,6.4-10.8,9.8C812.7,20.6,812.6,20.6,812.5,20.6z" class="st3"></path>
			</g>
			<g>
				<path d="M765.7-8.3c0,0-0.1,0-0.1,0c-0.3-0.1-0.6-0.4-0.5-0.7c1.1-5.9,4-11,4.9-12.5c0.2-0.3,0.6-0.4,0.9-0.2
					c0.3,0.2,0.4,0.6,0.2,0.9c-0.9,1.4-3.7,6.3-4.7,12C766.3-8.5,766-8.3,765.7-8.3z" class="st3"></path>
			</g>
			<g>
				<path d="M811.6,17.7c-0.8,0-2.5-0.6-6.9-3.1c-4.1-2.3-9.5-5.5-15.1-9.2c-5.6-3.6-10.7-7.2-14.5-10
					c-6.3-4.8-5.9-5.3-5.6-5.9c0-0.1,0.1-0.1,0.2-0.2c0.4-0.3,9.3-6.3,23.9,1.4c0.3,0.2,0.4,0.6,0.3,0.9c-0.2,0.3-0.6,0.4-0.9,0.3
					c-12.1-6.5-20.3-2.8-22.2-1.8c1.2,1.5,8.1,6.9,19.4,14.2c11.4,7.4,19.1,11.5,20.9,12c0.3-2,0.9-10.9-12.1-20.5
					c-0.3-0.2-0.3-0.6-0.1-0.9c0.2-0.3,0.6-0.3,0.9-0.1c15.5,11.5,12.6,21.9,12.5,22.3c0,0.1,0,0.1-0.1,0.2
					C812.2,17.5,812.1,17.7,811.6,17.7z M811.8,16.9L811.8,16.9L811.8,16.9z" class="st3"></path>
			</g>
			<g>
				<path d="M810.6,20.2c-1.8,0-12.3-5.8-22.4-12.3c-11.4-7.4-19.6-14.2-20.1-15.3c-0.4-0.9-0.3-1.6-0.1-2
					c0.5-1,1.8-1.3,1.9-1.3c0.3-0.1,0.7,0.2,0.7,0.5c0.1,0.3-0.2,0.7-0.5,0.7c-0.2,0-0.9,0.3-1.1,0.7c0,0.1-0.2,0.3,0.1,0.9
					c0.5,0.8,8,7.2,19.7,14.8c11.4,7.4,20.4,12,21.6,12.1c0.6-0.1,1-0.3,1-0.6c0.1-0.3-0.1-0.8-0.3-1c-0.2-0.3-0.2-0.7,0.1-0.9
					c0.3-0.2,0.7-0.2,0.9,0.1c0.1,0.1,0.9,1.2,0.5,2.2c-0.3,0.7-1,1.2-2,1.4C810.7,20.2,810.7,20.2,810.6,20.2z" class="st3"></path>
			</g>
			<g>
				<path d="M798.1-3.5c-0.9,0-1.9-0.3-3-0.9c-2.1-1.2-3.1-3.1-2.4-4.4c0.1-0.2,0.3-0.4,0.5-0.5
					c0.3-0.2,0.7-0.1,0.9,0.2c0.2,0.3,0.1,0.7-0.2,0.9c-0.1,0-0.1,0.1-0.1,0.1c-0.3,0.5,0.3,1.7,1.9,2.7c1.6,0.9,3,0.9,3.3,0.4
					c0.1-0.3,0.5-0.5,0.8-0.4c0.3,0.1,0.5,0.5,0.4,0.8c0,0.1-0.1,0.2-0.1,0.3C799.8-3.8,799-3.5,798.1-3.5z" class="st3"></path>
			</g>
			<g>
				<path d="M800.9-4.2c-1.4,0-3-0.5-4.6-1.4c-1.5-0.9-2.7-2-3.4-3.1c-0.8-1.3-0.9-2.5-0.4-3.5c0.6-0.9,1.7-1.4,3.2-1.4
					c1.4,0.1,2.9,0.6,4.4,1.4c1.5,0.9,2.7,2,3.4,3.1c0.8,1.3,0.9,2.5,0.4,3.5C803.3-4.6,802.2-4.2,800.9-4.2z M795.5-12.3
					c-0.9,0-1.6,0.3-1.9,0.7c-0.3,0.5-0.2,1.3,0.4,2.2c0.6,1,1.7,2,2.9,2.7c2.7,1.6,5.3,1.5,5.9,0.5l0,0c0.3-0.5,0.2-1.3-0.4-2.2
					c-0.6-1-1.7-2-2.9-2.7c-1.3-0.8-2.6-1.2-3.8-1.2C795.6-12.3,795.5-12.3,795.5-12.3z" class="st3"></path>
			</g>
			<g>
				<path d="M800.4,60.2c-0.4,0-0.8-0.1-1.2-0.2c-7-2.4-32.4-12.2-62.8-37c-1.4-1.2-1.8-3.2-0.8-4.8
					c7.4-11.3,15.1-19.6,23.1-24.5c6-3.7,9.9-4.1,10.3-4.1c0.1,0,0.3,0,0.4,0.1c0.3,0.2,0.4,0.6,0.2,0.9c-0.1,0.2-0.3,0.3-0.6,0.3
					c0,0,0,0,0,0c-1.1,0.1-15.5,2-32.4,28c-0.7,1-0.4,2.3,0.5,3.1c30.2,24.7,55.4,34.4,62.4,36.8c1.1,0.4,2.3-0.1,2.8-1.1
					c1-1.8,1.9-3.5,2.7-5.2c0.2-0.3,0.5-0.5,0.8-0.3c0.3,0.2,0.5,0.5,0.3,0.8c-0.8,1.7-1.7,3.5-2.7,5.3
					C803,59.5,801.7,60.2,800.4,60.2z" class="st3"></path>
			</g>
			<g>
				<path d="M811.8,36.1c-0.1,0-0.2,0-0.3-0.1l0,0c-0.2-0.1-0.4-0.4-0.3-0.7c1.5-7.5,1.1-12.8,0.8-15.3
					c-0.1-1-0.3-1.5-0.3-1.5c-0.1-0.3,0.1-0.7,0.4-0.8c0.3-0.1,0.7,0.1,0.8,0.4c0,0.2,0.2,0.7,0.3,1.7c0.4,2.6,0.8,8-0.8,15.6
					c0,0.1,0,0.2-0.1,0.3C812.2,36,812,36.1,811.8,36.1z" class="st3"></path>
			</g>
		</g>
		<g>
			<path d="M809.9,54c-1.4,0-2.8-0.2-4.3-0.6c-0.2-0.1-0.4-0.2-0.4-0.5c0-0.1-2.3-11.1,6.2-18c0.2-0.2,0.5-0.2,0.7-0.1
				c0,0,3.9,1.5,12.4-6.8c4.5-4.4,9.3-5.2,12.6-5.1c3.8,0.2,7.4,1.7,9.3,3.9c0.2,0.3,0.2,0.7-0.1,0.9c-0.3,0.2-0.7,0.2-0.9-0.1
				c-1.7-2-5-3.4-8.4-3.5c-3-0.1-7.4,0.6-11.6,4.7c-7.8,7.6-12.2,7.5-13.5,7.2c-6.7,5.7-5.9,14.3-5.6,16.1
				c10.9,2.8,18.5-8,22.6-13.9c0.8-1.1,1.4-2.1,2-2.8c4.4-5.4,9.6-3.9,9.8-3.8c0.3,0.1,0.5,0.5,0.4,0.8c-0.1,0.3-0.5,0.5-0.8,0.4
				c-0.2-0.1-4.6-1.3-8.4,3.4c-0.5,0.7-1.2,1.6-2,2.7C826.2,44.5,819.5,54,809.9,54z" class="st3"></path>
		</g>
		<g>
			<path d="M840.7,33c-0.2,0-0.4-0.1-0.6-0.2c-0.6-0.7,0.1-2,2.2-3.9c0.7-0.7,1.5-1.3,2.1-1.7c0.4-0.3,1.4-0.9,1.9-0.3
				c0.6,0.7-0.1,2-2.2,3.9C842.6,32.3,841.4,33,840.7,33z M844.4,28.7c-0.4,0.3-0.8,0.6-1.3,1.1c-0.5,0.4-0.9,0.9-1.2,1.2
				c0.4-0.3,0.8-0.6,1.3-1.1C843.7,29.5,844.1,29.1,844.4,28.7z" class="st3"></path>
		</g>
	</g>
	<g class="st6">
		<path d="M777.2,45.7c-25.3-12.8-38-25.7-38-25.7s6.5-13.2,16-19.8C755.2,0.2,746.7,24.1,777.2,45.7z" class="st3"></path>
	</g>
	<g class="st6">
		<path d="M800.6-1.2c0,0,7.5,6.4,8.3,14.3c0,0-4.8-2.6-7.3-4.3C801.6,8.8,805.5,7.8,800.6-1.2z" class="st3"></path>
	</g>
	<g class="st6">
		<path d="M824.6,42.5c-7.7,9.6-16.7,8.8-16.7,8.8c-0.6-2.8,0-5.3,0-5.3s2.7,3,8.5,0.7S824.6,42.5,824.6,42.5z" class="st3"></path>
	</g>
	<g class="st6">
		<path d="M810.2,21.7c-9-1.4-25.5-13.6-25.5-13.6s9.8,13.9,25.5,17.4C810.2,25.5,810.5,22.9,810.2,21.7" class="st3"></path>
	</g>
	<g class="st2">
		<path d="M852.1,52c-0.3,0-0.6-0.3-0.6-0.6c-0.8-9.5-8-16.9-8.1-17c-0.2-0.2-0.2-0.7,0-0.9c0.2-0.2,0.7-0.2,0.9,0
			c0.3,0.3,7.7,7.8,8.5,17.8C852.8,51.7,852.5,52,852.1,52C852.2,52,852.2,52,852.1,52z" class="st3"></path>
	</g>
	<g class="st2">
		<path d="M857.1,44.6c-0.3,0-0.5-0.2-0.6-0.4c-2.9-7.9-9.5-12.4-9.6-12.4c-0.3-0.2-0.4-0.6-0.2-0.9
			c0.2-0.3,0.6-0.4,0.9-0.2c0.3,0.2,7,4.7,10.1,13.1c0.1,0.3,0,0.7-0.4,0.8C857.2,44.6,857.1,44.6,857.1,44.6z" class="st3"></path>
	</g>
</g>
<g class="st1">
	<g class="st2">
		<path d="M96.4,154.3c-1.9,0.6-3.9,1.2-6,1.9c-15.6,5.4-26.1-1.9-28.6-3.8c3.5-1.2,8.7-3.4,17.1,0.4
			C85.3,155.7,89.9,155.3,96.4,154.3z" class="st4"></path>
	</g>
	<g class="st2">
		<path d="M120.1,149.9c-5.1,9.8-14.7,16.2-30.2,16.2c-13.4,0-22.7-5.3-28.3-13.6c0,0,0.1,0,0.1,0c0,0,0.1,0,0.1,0
			c2.5,2,13.1,9.2,28.6,3.8c2.1-0.7,4.1-1.3,6-1.9C113.4,148.5,116.4,149,120.1,149.9z" class="st5"></path>
	</g>
	<g class="st2">
		<path d="M89.9,168.6c-23.3,0-37.8-14.7-38.8-39.4c0-0.9,0.3-1.7,0.9-2.3c0.6-0.6,1.4-1,2.3-1h71.3
			c0.9,0,1.7,0.3,2.3,1c0.6,0.6,0.9,1.4,0.9,2.3c-0.4,11.6-3.7,21.2-9.5,27.9C112.4,164.7,102.6,168.6,89.9,168.6z M54.3,127.3
			c-0.5,0-0.9,0.2-1.3,0.5c-0.3,0.3-0.5,0.8-0.5,1.3c1,23.8,14.9,38,37.4,38c31.3,0,36.9-23.8,37.4-38c0-0.5-0.2-0.9-0.5-1.3
			c-0.3-0.3-0.8-0.5-1.3-0.5H54.3z" class="st3"></path>
	</g>
	<g class="st2">
		<g>
			<path d="M121.5,153.5c-0.4,0-0.7-0.3-0.7-0.6c0-0.4,0.3-0.7,0.6-0.8c8.7-0.8,15.3-5.7,15.7-11.8
				c0.2-2.7-0.4-4.8-1.6-6.1c-1.3-1.4-3.3-1.7-4.6-1.7c-1,0-2,0.2-2.9,0.6c-0.4,0.2-0.8,0-0.9-0.4c-0.2-0.4,0-0.8,0.4-0.9
				c1.1-0.5,2.2-0.7,3.4-0.7c1.7,0,4,0.4,5.7,2.2c1.5,1.6,2.2,4.1,2,7.1C138.1,147.1,130.9,152.6,121.5,153.5
				C121.5,153.5,121.5,153.5,121.5,153.5z" class="st3"></path>
		</g>
		<g>
			<path d="M119.3,158.7c-0.7,0-1.3,0-1.9-0.1c-0.4,0-0.7-0.4-0.6-0.7c0-0.4,0.4-0.7,0.7-0.6c0.6,0,1.2,0.1,1.8,0.1
				c12.2,0,22.3-7.3,23-16.7c0.4-5.2-1.4-8.3-2.9-9.9c-2-2.2-5-3.4-8.4-3.4c-1.2,0-2.4,0.2-3.6,0.5c-0.4,0.1-0.8-0.1-0.9-0.5
				c-0.1-0.4,0.1-0.8,0.5-0.9c1.3-0.4,2.7-0.6,4-0.6c3.8,0,7.1,1.4,9.4,3.8c1.7,1.9,3.7,5.3,3.3,11
				C142.9,150.9,132.4,158.7,119.3,158.7z" class="st3"></path>
		</g>
	</g>
	<g class="st7">
		<g>
			<path d="M56,138.1c0,0,4.6,21.5,24.3,25.1C80.3,163.2,66.1,155.4,56,138.1z" class="st3"></path>
		</g>
		<g>
			<path d="M111,129.6h13.7c0,0-0.2,12.5-5.5,18.4C119.2,148,125.9,131.9,111,129.6z" class="st3"></path>
		</g>
		<g>
			<path d="M130.2,128.1c0,0,7.7-0.2,10.2,6.4C140.4,134.4,137.8,129.5,130.2,128.1z" class="st3"></path>
		</g>
		<g>
			<path d="M139.4,144.9c0,0-2.6,7.5-13.1,9.8C126.3,154.7,135.3,151.2,139.4,144.9z" class="st3"></path>
		</g>
	</g>
	<g class="st2">
		<ellipse ry="3.5" rx="23.4" cy="180.7" cx="89.9" class="st3"></ellipse>
	</g>
	<g class="st2">
		<g>
			<path d="M78.9,98.9c0,0-2.5,0-3.4,2.9c-0.9,2.9,2.2,4.5,2.2,4.5s0.4,2.3,3.5,2.9c3.1,0.6,4.2-0.3,4.2-0.3
				s-0.5,3.9,2.2,5.5c0,0-0.8,2.1,1.1,3.7c1.9,1.5,4.2,0.2,4.6-0.6c0.4-0.8,0.5-2,0.5-2s2.6-1.2,3.7-2.7c1.1-1.5,0.9-2,0.9-2
				s2.4,0.6,2.9-2.2s-1.9-4-2.6-4.1c-0.8-0.1-1.5,0-1.5,0s-1.2-1.2-3-1.6c-1.8-0.5-2.4-0.4-2.4-0.4s0.7-3-0.2-5.2
				c-1-2.2-2.7-2.5-2.7-2.5s-1.8-2.7-4.2-2.2c-2.5,0.5-3.2,3.9-3.2,3.9S80.9,96.7,78.9,98.9z" class="st8"></path>
		</g>
		<g>
			<g>
				<path d="M77.5,79.9c-0.4,0-0.8-0.1-1.2-0.3c-2.1-0.9-3.3-4.2-4.8-8.2c-0.5-1.2-0.9-2.5-1.5-3.8
					c-2.1-5.1-4-8.4-4.7-9.5c-0.1-0.2-0.2-0.3-0.4-0.5c-6.5-5.9-9.8-11.7-11.5-14.8c-0.4-0.8-0.8-1.4-1-1.7
					c-0.2-0.3-1.9-1.8-11.8-8.7c-0.3-0.2-0.4-0.7-0.2-1c0.2-0.3,0.7-0.4,1-0.2c11.2,7.8,11.9,8.7,12.1,9c0.3,0.4,0.6,1,1.1,1.9
					c1.7,3,4.9,8.7,11.3,14.5c0.3,0.2,0.5,0.5,0.7,0.8c0.7,1.2,2.7,4.6,4.8,9.7c0.5,1.3,1,2.6,1.5,3.8c1.3,3.5,2.5,6.8,4.1,7.5
					c0.4,0.2,0.8,0.2,1.3,0c0.5-0.2,1-0.7,1.4-1.6c0.9-2.1,1.1-6.3-0.7-10.9c-1.1-2.8-2.1-5.5-2.9-8.1c-0.1-0.4,0.1-0.8,0.5-0.9
					c0.4-0.1,0.8,0.1,0.9,0.5c0.8,2.5,1.8,5.2,2.9,8c1.7,4.3,2,9,0.7,12c-0.5,1.2-1.3,2-2.2,2.3C78.3,79.8,77.9,79.9,77.5,79.9z" class="st3"></path>
			</g>
			<g>
				<path d="M72.5,59c-1.2,0-2.5-0.2-3.7-0.8c-0.3-0.2-0.5-0.6-0.3-0.9c0.2-0.3,0.6-0.5,0.9-0.3c2.1,1,5.2,0.8,8.3-0.5
					c1.4-0.6,2.8-1.1,3.9-1.4c0.4-0.1,0.8,0.1,0.9,0.5c0.1,0.4-0.1,0.8-0.5,0.9c-1.1,0.3-2.3,0.8-3.7,1.4C77.2,58.2,74.9,59,72.5,59
					z" class="st3"></path>
			</g>
			<g>
				<path d="M96.9,82.5c-0.6,0-1.1-0.3-1.5-0.8c-3.1-4.5-2.2-10.6-1.9-11.9c-1.4-3.5-2-7.2-2.2-8.5
					C84.9,59,77.9,54,76.8,53.2c-4.5-0.8-8.5-2.3-12.1-4.5l-1.7-1.1c-2-1.4-3.1-2.4-3.1-2.5c-0.3-0.3-0.3-0.7,0-1
					c0.3-0.3,0.7-0.3,1,0c0,0,1,1,2.9,2.3l1.6,1c3.5,2.1,7.3,3.5,11.7,4.3c0.1,0,0.2,0.1,0.3,0.1c0.1,0.1,7.9,5.9,14.7,8.2
					c0.2,0.1,0.4,0.3,0.5,0.6c0,0,0.7,4.7,2.3,8.7c0.1,0.1,0.1,0.3,0,0.4c0,0.1-1.3,6.6,1.7,11c0.1,0.2,0.3,0.2,0.4,0.2
					c0.1,0,0.3-0.1,0.3-0.3c1.5-6.2,2.4-10.2,2.5-11c0.1-1.1-0.9-7.5-1.6-11.7L90,48c-0.2-0.3-0.2-0.7,0.1-1c0.3-0.2,0.7-0.2,1,0.1
					l8.3,10.3c0.1,0.1,0.1,0.2,0.1,0.3c0.2,1.1,1.8,10.5,1.6,12.2c-0.1,1.1-1.4,6.7-2.5,11.3c-0.2,0.7-0.7,1.2-1.4,1.3
					C97.2,82.5,97.1,82.5,96.9,82.5z" class="st3"></path>
			</g>
			<g>
				<path d="M97.1,90.2c-0.1,0-0.2,0-0.3-0.1c-4.8-2.7-3.7-8.5-2.4-11.2c0.2-0.4,0.6-0.5,0.9-0.3
					c0.4,0.2,0.5,0.6,0.3,0.9c-0.1,0.3-2.7,6.2,1.3,9c1-1.8,3.7-6.6,4.2-7.8c0.1-0.3,0.6-2.4,1.3-7.1c0.3-2.1,0.6-4.3,0.9-6.2
					c0.4-3.3,0.6-4.7,0.6-5c-0.1-0.1-0.1-0.3-0.2-0.6c-0.5-1.2-1.5-4.1-3.4-7.8c-0.2-0.3,0-0.8,0.3-0.9c0.3-0.2,0.8,0,0.9,0.3
					c2,3.8,3,6.7,3.5,7.9c0.1,0.3,0.2,0.5,0.2,0.6c0.1,0.2,0.2,0.4-0.5,5.7c-0.3,1.9-0.6,4.2-0.9,6.3c-0.7,4.4-1.1,6.9-1.4,7.5
					c-0.6,1.5-4.4,8.3-4.6,8.6c-0.1,0.2-0.2,0.3-0.4,0.3C97.2,90.2,97.2,90.2,97.1,90.2z" class="st3"></path>
			</g>
			<g>
				<path d="M109,89.3c-1.4,0-2.6-0.5-3.6-1.4c-3.4-3-3.7-10.1-3.7-10.4c0-0.4,0.3-0.7,0.7-0.7c0.4,0,0.7,0.3,0.7,0.7
					c0,0.1,0.3,6.7,3.3,9.4c0.7,0.6,1.5,1,2.4,1c0-2.1-0.2-8.3-0.2-9.2c0-0.8-2.2-10.4-3.6-16.3c-4.4-7.7-11.2-19.4-12.1-20.3
					c-0.5-0.5-6-3.6-10.4-6C76.8,33,71,29.7,69.7,28.7l-0.3-0.3C69,28,68.8,27.9,65.9,25c-0.3-0.3-0.3-0.7,0-1c0.3-0.3,0.7-0.3,1,0
					c2.9,2.9,3.1,3,3.5,3.3l0.3,0.3c1.1,1,7.2,4.3,12.5,7.3c6.2,3.5,10.1,5.6,10.7,6.3c1.3,1.3,11.2,18.7,12.3,20.7
					c0,0.1,0.1,0.1,0.1,0.2c0.6,2.6,3.7,15.6,3.7,16.7c0,1.1,0.2,9.7,0.2,9.8c0,0.4-0.3,0.7-0.6,0.7C109.3,89.2,109.2,89.3,109,89.3
					z" class="st3"></path>
			</g>
			<g>
				<g>
					<path d="M112,79.5c-2,0-3.3-1.5-3.7-2.5c-0.2-0.4,0-0.8,0.4-0.9c0.4-0.2,0.8,0,0.9,0.4c0.1,0.2,1.1,2.2,3.4,1.5
						c-0.7-3.8-1.5-7.9-1.7-8.4c-0.2-0.5-2.7-6.7-4.1-10.4c-0.1-0.2-0.2-0.4-0.4-0.6c-1.8-1.8-7.6-7.7-9.9-10.2
						c-0.3-0.3-0.2-0.7,0-1c0.3-0.3,0.7-0.2,1,0c2.3,2.5,8.6,8.9,9.8,10.1c0.3,0.3,0.6,0.7,0.7,1.1c2.3,5.9,3.9,10,4.1,10.3
						c0.3,0.6,1.5,6.7,2,9.3c0.1,0.3-0.1,0.6-0.4,0.8C113.3,79.4,112.6,79.5,112,79.5z" class="st3"></path>
				</g>
			</g>
		</g>
		<g class="st9">
			<path d="M76,102.9c0,0,0.8,2.8,3.6,3.2c2.8,0.5,3-2.3,2.9-2.4C82.4,103.6,79.1,105.5,76,102.9z" class="st10"></path>
		</g>
		<g class="st9">
			<path d="M82.2,96.5c0,0,0.3,2.9,3.4,3.1s3.3-2.5,3.3-2.5S85.5,98.5,82.2,96.5z" class="st10"></path>
		</g>
		<g class="st9">
			<path d="M89.6,115c-0.3-0.3-1-0.3-1.2,0.1c-0.3,0.8,0.2,1.8,0.9,2.2c0.7,0.4,1.7,0.6,2.5,0.3
				c0.5-0.1,0.9-0.5,1.1-0.9c0.1-0.2,0.1-0.5,0-0.7c-0.2-0.2-0.6,0-0.8,0c-0.5,0.1-1,0.2-1.5,0C90,115.9,89.8,115.3,89.6,115z" class="st10"></path>
		</g>
		<g class="st9">
			<path d="M98.5,108.9c-0.2,0.4,0.2,1,0.7,0.9c0.8-0.1,1.5-1,1.6-1.8c0.1-0.8-0.3-1.7-0.9-2.3
				c-0.4-0.3-0.8-0.6-1.3-0.5c-0.2,0-0.5,0.1-0.6,0.4c-0.1,0.3,0.2,0.5,0.4,0.7c0.3,0.4,0.7,0.8,0.7,1.3
				C99.1,108.2,98.7,108.5,98.5,108.9z" class="st10"></path>
		</g>
		<g class="st9">
			<path d="M89.4,109c-0.5-0.2-0.9,0.4-0.5,0.8c0.2,0.2,0.6,0.5,1.1,0.5c1,0.1,1.7-0.6,1.7-0.8c-0.1-0.3-0.2-0.5-1-0.2
				C90.2,109.4,89.8,109.1,89.4,109z" class="st10"></path>
		</g>
		<g class="st9">
			<path d="M83.1,105.6c0,0-0.3,0.7-0.7,0.9c0,0,1.6,1,2.9,0.9c0,0,0.2-1.5,1.4-2.7C86.7,104.8,85,105.9,83.1,105.6z" class="st10"></path>
		</g>
		<g class="st9">
			<path d="M83.6,108.8c-3,0.1-4.9-1.4-4.9-1.4s0.9,0.2,1.7,0.1C80.4,107.5,81.9,108.5,83.6,108.8z" class="st10"></path>
		</g>
		<g>
			<path d="M58.2,118.8c-1.5,0-2.7,1.2-2.7,2.7c0-1.5-1.2-2.7-2.7-2.7c1.5,0,2.7-1.2,2.7-2.7
				C55.5,117.6,56.7,118.8,58.2,118.8z" class="st3"></path>
		</g>
		<g>
			<path d="M119.3,106.7c-0.9,0-1.6,0.7-1.6,1.6c0-0.9-0.7-1.6-1.6-1.6c0.9,0,1.6-0.7,1.6-1.6
				C117.7,106,118.4,106.7,119.3,106.7z" class="st3"></path>
		</g>
		<g>
			<path d="M84.1,87.3c-0.9,0-1.6,0.7-1.6,1.6c0-0.9-0.7-1.6-1.6-1.6c0.9,0,1.6-0.7,1.6-1.6
				C82.5,86.6,83.2,87.3,84.1,87.3z" class="st3"></path>
		</g>
		<g>
			<g>
				<path d="M68.5,85.5h-1.6c-0.1,0-0.2-0.1-0.2-0.2c0-0.1,0.1-0.2,0.2-0.2h1.6c0.1,0,0.2,0.1,0.2,0.2
					C68.7,85.3,68.6,85.5,68.5,85.5z" class="st3"></path>
			</g>
			<g>
				<path d="M65.9,85.5h-1.6c-0.1,0-0.2-0.1-0.2-0.2c0-0.1,0.1-0.2,0.2-0.2h1.6c0.1,0,0.2,0.1,0.2,0.2
					C66.1,85.3,66,85.5,65.9,85.5z" class="st3"></path>
			</g>
			<g>
				<path d="M66.4,85c-0.1,0-0.2-0.1-0.2-0.2v-1.6c0-0.1,0.1-0.2,0.2-0.2c0.1,0,0.2,0.1,0.2,0.2v1.6
					C66.6,84.8,66.5,85,66.4,85z" class="st3"></path>
			</g>
			<g>
				<path d="M66.4,87.6c-0.1,0-0.2-0.1-0.2-0.2v-1.6c0-0.1,0.1-0.2,0.2-0.2c0.1,0,0.2,0.1,0.2,0.2v1.6
					C66.6,87.5,66.5,87.6,66.4,87.6z" class="st3"></path>
			</g>
		</g>
		<g>
			<g>
				<g>
					<path d="M82.4,93.5c0.8-0.8,1.8-1.2,2.9-1.2c1.1,0,2.2,0.5,3,1.3c0.2,0.2,0.4,0.5,0.6,0.7c0,0,0,0,0.1,0
						c0.2,0,0.5,0.1,0.8,0.2c1,0.5,1.8,2,2.2,3.3c0.6,1.9,0.3,3.5,0.2,4.3c0.1,0,0.3,0,0.4,0h0c0.1,0,0.2,0,0.3,0
						c1.8,0.1,3.4,0.8,4.4,2.1c0.1,0,0.2-0.1,0.4-0.1c1.9-0.3,3.7,1.1,4.1,3c0.2,0.9,0,1.9-0.5,2.6c-0.5,0.7-1.3,1.2-2.2,1.4
						c-0.1,0-0.3,0-0.4,0c-0.3,1.1-0.9,2.1-1.7,2.9c-0.8,0.8-1.7,1.4-2.8,1.7c0,0.2,0,0.3,0,0.4c-0.1,0.9-0.6,1.7-1.3,2.2
						c-0.7,0.5-1.7,0.8-2.6,0.6c-1.9-0.3-3.3-2.2-3-4.1c0-0.1,0-0.2,0.1-0.4c-1.3-1-2.1-2.6-2.1-4.4c0-0.3,0-0.5,0-0.8
						c-0.8,0.2-2.4,0.4-4.3-0.1c-1.3-0.4-2.9-1.2-3.3-2.1c-0.1-0.2-0.2-0.6-0.2-0.9c-0.3-0.2-0.5-0.4-0.8-0.6
						c-0.8-0.8-1.3-1.8-1.4-2.9c0-1.3,0.5-2.5,1.6-3.3c0.7-0.6,1.5-0.8,2.4-0.9c0.6-1.3,1.7-2,2.1-2.2c0-0.8,0.3-1.7,0.8-2.4
						C82.1,93.8,82.3,93.7,82.4,93.5 M88.6,99.2c0.1-0.1,0.1-0.1,0.2-0.2c0.9-1.3,0.5-3.4-0.9-4.9c-0.7-0.7-1.6-1.1-2.6-1.1
						c-1.1,0-2.1,0.5-2.8,1.4c-0.5,0.7-0.7,1.4-0.7,2.2v0c0,0.2,0,0.4,0.1,0.7c0.2,1,0.9,1.9,1.9,2.3l0,0
						C85.5,100.4,87.5,100.3,88.6,99.2 M79.2,99.1c-0.8,0-1.5,0.2-2.2,0.7c-0.9,0.7-1.4,1.7-1.4,2.8c0,1,0.5,1.9,1.2,2.5
						c1.6,1.4,3.7,1.8,5,0.8c0.1-0.1,0.1-0.1,0.2-0.2c1-1.1,1.1-3.1,0.2-4.8c-0.5-0.9-1.4-1.6-2.4-1.8
						C79.7,99.2,79.5,99.1,79.2,99.1C79.2,99.1,79.2,99.1,79.2,99.1 M81.2,97c-0.4,0.3-1.1,0.8-1.6,1.6c0.1,0,0.2,0,0.3,0.1
						c1.2,0.3,2.2,1,2.8,2.1c1,2,0.9,4.3-0.3,5.5c-0.1,0.1-0.2,0.2-0.3,0.2l0,0c-0.1,0.1-0.2,0.1-0.2,0.2c1.3,0.8,2.5,1.2,3.5,1.2
						c0-0.1,0-0.1,0.1-0.2c0-0.1,0.1-0.2,0.1-0.3c0.1-0.1,0.1-0.2,0.1-0.3c0,0,0-0.1,0-0.1c0-0.1,0.1-0.2,0.1-0.3l0-0.1
						c0-0.1,0.1-0.2,0.1-0.3l0-0.1c0-0.1,0.1-0.2,0.2-0.3l0.1-0.1c0.1-0.1,0.1-0.2,0.2-0.2l0.1-0.1c0.1-0.1,0.1-0.2,0.2-0.2l0.1-0.1
						c0.1-0.1,0.1-0.2,0.2-0.2l0.1-0.1c0.2-0.2,0.4-0.4,0.6-0.6l0.1-0.1l0.1-0.1c0.1-0.1,0.1-0.1,0.2-0.2l0.1-0.1
						c0.1-0.1,0.2-0.1,0.3-0.2l0.1,0c0.1-0.1,0.2-0.1,0.3-0.2l0.1-0.1c0.1-0.1,0.2-0.1,0.2-0.2l0.1,0c0.1-0.1,0.2-0.1,0.3-0.2
						c0,0,0.1,0,0.1,0c0.1,0,0.2-0.1,0.3-0.1c0,0,0.1,0,0.1,0c0.1,0,0.2-0.1,0.3-0.1c0.2-0.1,0.3-0.1,0.4-0.1c0.1,0,0.2-0.1,0.2-0.1
						c0-1.1-0.4-2.3-1.2-3.5c-0.1,0.1-0.1,0.2-0.2,0.4c-1.1,1.5-3.6,1.8-5.7,0.7c-1.1-0.5-1.9-1.5-2.2-2.7
						C81.3,97.2,81.3,97.1,81.2,97 M81.3,107c-1,0.4-2.2,0.3-3.4-0.2c0,0.1,0,0.1,0.1,0.2c0.4,0.7,1.8,1.5,3,1.8v0
						c1.8,0.5,3.5,0.2,4.1,0.1c0-0.1,0-0.2,0.1-0.4C83.8,108.3,82.4,107.6,81.3,107 M91.5,102.2c0.2-0.7,0.4-2.3-0.1-4.1
						c-0.4-1.2-1.1-2.6-1.9-2.9c0,0,0,0,0,0c0.5,1.1,0.6,2.3,0.2,3.3c0.8,1.3,1.3,2.6,1.4,3.8C91.3,102.3,91.4,102.2,91.5,102.2
						 M89.6,103.6c-0.1,0-0.2,0.1-0.2,0.1l-0.1,0c-0.1,0-0.1,0.1-0.2,0.1l-0.1,0.1c-0.1,0.1-0.2,0.1-0.2,0.2c0,0,0,0,0,0l0,0
						c-0.1,0-0.1,0.1-0.2,0.2l-0.1,0.1c-0.1,0.1-0.1,0.1-0.2,0.2l-0.1,0.1c-0.2,0.2-0.4,0.4-0.6,0.6l0,0.1c-0.1,0.1-0.2,0.2-0.2,0.2
						l-0.1,0.1c-0.1,0.1-0.1,0.1-0.2,0.2c0,0-0.1,0.1-0.1,0.1c-0.1,0.1-0.1,0.1-0.2,0.2c0,0,0,0.1-0.1,0.1c0,0.1-0.1,0.2-0.1,0.2
						c0,0,0,0.1,0,0.1c0,0.1-0.1,0.2-0.1,0.3l0,0.1c0,0.1-0.1,0.2-0.1,0.3c0,0,0,0.1,0,0.1c0,0.1-0.1,0.2-0.1,0.3
						c-0.1,0.1-0.1,0.2-0.1,0.3c0,0.1-0.1,0.2-0.1,0.3c0,0.1-0.1,0.2-0.1,0.3c0,0,0,0,0,0c-0.1,0.6-0.2,1.1-0.1,1.7
						c0.1,1.7,0.8,3.2,2.1,4.1c0.1,0.1,0.1,0.2,0.1,0.3c-0.1,0.2-0.1,0.3-0.1,0.4c-0.2,1.6,0.9,3.1,2.6,3.4c0.8,0.1,1.6,0,2.2-0.5
						c0.6-0.4,1-1.1,1.1-1.8c0-0.2,0-0.3,0-0.5c0-0.1,0.1-0.3,0.2-0.3c1.1-0.3,2-0.9,2.8-1.7c0.7-0.8,1.3-1.7,1.6-2.8
						c0-0.1,0.2-0.2,0.3-0.2c0.2,0,0.4,0,0.5,0c0.8-0.1,1.4-0.5,1.8-1.1c0.4-0.6,0.6-1.4,0.4-2.2c-0.3-1.6-1.9-2.7-3.5-2.5
						c-0.1,0-0.3,0.1-0.4,0.1c-0.1,0-0.2,0-0.3-0.1c-1-1.2-2.5-1.9-4.1-2c-0.1,0-0.2,0-0.3,0h0c-0.3,0-0.7,0-1,0.1
						c-0.1,0-0.2,0-0.3,0.1c-0.1,0-0.2,0.1-0.3,0.1c-0.1,0-0.2,0.1-0.3,0.1c-0.1,0-0.2,0.1-0.3,0.1c-0.1,0.1-0.2,0.1-0.3,0.1l-0.1,0
						C89.8,103.5,89.7,103.5,89.6,103.6L89.6,103.6z M88.6,105.8c1.2-1.2,3-1.4,4.3-0.6c0.6,0.4,0.9,1,1,1.7c0.1,1-0.3,2.1-1.1,2.9
						c-0.8,0.8-1.9,1.3-2.9,1.2c-0.7-0.1-1.4-0.4-1.7-1C87.2,108.8,87.5,107,88.6,105.8 M92.3,109.5c0.7-0.7,1.1-1.6,1-2.5
						c-0.1-0.6-0.3-1-0.7-1.3c-1-0.7-2.6-0.5-3.5,0.5c-1,1-1.2,2.5-0.5,3.5c0.3,0.4,0.8,0.7,1.3,0.7
						C90.7,110.5,91.6,110.2,92.3,109.5 M91.4,111.4c0.3-0.3,0.9-0.3,1.4,0.2c0.4,0.4,0.5,1,0.2,1.4c-0.3,0.3-0.9,0.3-1.4-0.2
						C91.1,112.4,91.1,111.8,91.4,111.4 M94.3,108.5c0.3-0.3,0.9-0.3,1.4,0.2c0.4,0.4,0.5,1,0.2,1.4c-0.3,0.3-0.9,0.3-1.4-0.2
						C94,109.4,94,108.8,94.3,108.5" class="st11"></path>
				</g>
				<g>
					<path d="M88.8,108.3C88.8,108.3,88.8,108.3,88.8,108.3c-0.1,0-0.2-0.1-0.2-0.2c0,0,0.4-2.1,2.2-2.2
						c0.1,0,0.2,0.1,0.2,0.2c0,0.1-0.1,0.2-0.2,0.2c-1.5,0.1-1.9,1.9-1.9,1.9C89,108.2,88.9,108.3,88.8,108.3z" class="st11"></path>
				</g>
			</g>
			<g>
				<path d="M90.6,107.8c0,0-0.1,0-0.1,0l-1.1-0.9c-0.1-0.1-0.1-0.2,0-0.2c0.1-0.1,0.2-0.1,0.2,0l1.1,0.9
					c0.1,0.1,0.1,0.2,0,0.2C90.7,107.8,90.6,107.8,90.6,107.8z" class="st11"></path>
			</g>
		</g>
	</g>
</g>
<g class="st1">
	<linearGradient y2="133.0377" x2="80.484" y1="111.5607" x1="65.9457" gradientUnits="userSpaceOnUse" id="SVGID_1_">
		<stop style="stop-color:#A97C50" offset="0.2981"></stop>
		<stop style="stop-color:#AA7E53" offset="0.553"></stop>
		<stop style="stop-color:#AC835D" offset="0.7608"></stop>
		<stop style="stop-color:#AF8B6E" offset="0.9513"></stop>
		<stop style="stop-color:#B08E74" offset="1"></stop>
	</linearGradient>
	<path d="M92.6,120.8c-2.1,0.6-4.3,1.3-6.5,2c-0.3,0.1-0.6,0.2-1,0.3c-17.9,6.2-30.5-1.1-34.6-4.1
		c4.3-1.5,10.5-4.5,20.4-0.1C79,122.6,84.6,122.2,92.6,120.8z" class="st12"></path>
	<g class="st2">
		<g>
			<g>
				<path d="M81.7,135.9c-1,0-1.9-0.4-2.6-1.2c-0.9-1.1-1.5-2.4-1.7-4c-0.3-3.3,0-6.6,1-9.9c0.9-3.2,2.9-5.6,5.8-7.1
					c0.7-0.4,1.4-0.9,2-1.2c0.4-0.3,0.7-0.7,0.9-1.3l8.5-26.9c1-3.3,2.1-6.5,3.1-9.8c0.2-0.6,0.4-1.1,0.8-1.5
					c0.7-0.9,1.7-1.1,2.8-0.8c1,0.4,1.7,1.2,1.7,2.3c0,0.5-0.1,1-0.3,1.6c-0.4,1.2-0.9,2.4-1.3,3.6l-5.2,14.4c0,0,0,0.1,0,0.1
					l-1.7,4.6c-1.6,4.4-3.2,8.8-4.9,13.3c-0.3,0.9-0.3,1.7,0,2.6c0.3,0.7,0.6,1.4,0.9,2.1c1,2.4,1.2,5,0.3,7.5
					c-1.2,3.8-3.3,7.2-6.1,9.9c-0.8,0.8-1.9,1.4-3.2,1.6C82.2,135.9,81.9,135.9,81.7,135.9z M101.4,73.5c-0.3,0-0.6,0.1-0.8,0.4
					c-0.2,0.3-0.4,0.6-0.5,1c-1.1,3.3-2.1,6.5-3.1,9.8l-8.5,26.9c-0.3,0.9-0.8,1.6-1.4,2c-0.6,0.4-1.3,0.9-2.1,1.3
					c-2.6,1.3-4.3,3.4-5.1,6.2c-0.9,3.1-1.2,6.3-0.9,9.4c0.1,1.3,0.6,2.4,1.3,3.2c0.6,0.6,1.2,0.9,2,0.7c1-0.2,1.8-0.6,2.5-1.3
					c2.7-2.6,4.6-5.7,5.8-9.4c0.7-2.2,0.6-4.4-0.3-6.5c-0.3-0.7-0.6-1.5-0.9-2.2c-0.4-1.1-0.4-2.3,0-3.5c1.6-4.4,3.2-8.8,4.8-13.3
					l1.6-4.5c0,0,0-0.1,0-0.1l5.3-14.4c0.4-1.2,0.9-2.4,1.3-3.6c0.1-0.4,0.2-0.7,0.2-1.1c0-0.5-0.3-0.9-0.8-1
					C101.6,73.6,101.5,73.5,101.4,73.5z" class="st3"></path>
			</g>
		</g>
	</g>
	<g class="st2">
		<g>
			<path d="M104.6,67.6h-0.2c-7.3,0-18.2-1.3-18.2-4.8c0-3.7,11.5-4.6,13.8-4.7c0.4,0,0.7,0.3,0.7,0.7
				c0,0.4-0.3,0.7-0.7,0.7c-8.8,0.5-12.5,2.4-12.5,3.3c0,1.2,5.8,3.4,16.8,3.4h0.2c0.4,0,0.7,0.3,0.7,0.7S105,67.6,104.6,67.6z" class="st3"></path>
		</g>
	</g>
	<g class="st2">
		<g>
			<path d="M111.2,67.2c-0.4,0-0.7-0.3-0.7-0.6c0-0.4,0.2-0.7,0.6-0.8c7.6-0.8,10.1-2.4,10.1-3.1c0-0.4-0.8-1.3-3.9-2.1
				c-2.8-0.7-6.6-1.2-10.8-1.3c-0.4,0-0.7-0.3-0.7-0.7c0-0.4,0.3-0.7,0.7-0.7c6,0.2,16.1,1.4,16.1,4.8
				C122.6,65.8,114.6,66.9,111.2,67.2C111.2,67.2,111.2,67.2,111.2,67.2z" class="st3"></path>
		</g>
	</g>
	<g class="st2">
		<g>
			<path d="M100.7,61.3c-0.2,0-0.3,0-0.5-0.1c-0.3-0.2-0.5-0.5-0.5-0.9v-3.8c0-0.4,0.2-0.8,0.6-0.9
				c0.4-0.2,0.8-0.1,1.1,0.1l2.5,2c0.3,0.2,0.4,0.5,0.4,0.8c0,0.3-0.2,0.6-0.5,0.8l-2.5,1.7C101.1,61.3,100.9,61.3,100.7,61.3z
				 M101,57.3v2.3l1.6-1.1L101,57.3z" class="st3"></path>
		</g>
	</g>
	<g class="st2">
		<g>
			<path d="M110.7,69.7c-0.2,0-0.5-0.1-0.6-0.2l-2.5-2c-0.3-0.2-0.4-0.5-0.4-0.8c0-0.3,0.2-0.6,0.5-0.8l2.5-1.7
				c0.3-0.2,0.7-0.2,1.1-0.1c0.3,0.2,0.5,0.5,0.5,0.9v3.8c0,0.4-0.2,0.8-0.6,0.9C111,69.7,110.8,69.7,110.7,69.7z M108.8,66.6
				l1.6,1.2v-2.3L108.8,66.6z" class="st3"></path>
		</g>
	</g>
	<path d="M69,126.4" class="st13"></path>
	<path d="M66.2,99.2c-1.5,0-2.7,1.2-2.7,2.7c0-1.5-1.2-2.7-2.7-2.7c1.5,0,2.7-1.2,2.7-2.7C63.5,98,64.7,99.2,66.2,99.2
		z" class="st14"></path>
	<path d="M117.1,91.4c-0.9,0-1.6,0.7-1.6,1.6c0-0.9-0.7-1.6-1.6-1.6c0.9,0,1.6-0.7,1.6-1.6
		C115.5,90.7,116.2,91.4,117.1,91.4z" class="st14"></path>
	<g class="st2">
		<g>
			<path d="M81.2,83.5h-1.6c-0.1,0-0.2-0.1-0.2-0.2c0-0.1,0.1-0.2,0.2-0.2h1.6c0.1,0,0.2,0.1,0.2,0.2
				C81.5,83.4,81.4,83.5,81.2,83.5z" class="st3"></path>
		</g>
		<g>
			<path d="M78.6,83.5H77c-0.1,0-0.2-0.1-0.2-0.2c0-0.1,0.1-0.2,0.2-0.2h1.6c0.1,0,0.2,0.1,0.2,0.2
				C78.8,83.4,78.7,83.5,78.6,83.5z" class="st3"></path>
		</g>
		<g>
			<path d="M79.1,83c-0.1,0-0.2-0.1-0.2-0.2v-1.6c0-0.1,0.1-0.2,0.2-0.2c0.1,0,0.2,0.1,0.2,0.2v1.6
				C79.3,82.9,79.2,83,79.1,83z" class="st3"></path>
		</g>
		<g>
			<path d="M79.1,85.7c-0.1,0-0.2-0.1-0.2-0.2v-1.6c0-0.1,0.1-0.2,0.2-0.2c0.1,0,0.2,0.1,0.2,0.2v1.6
				C79.3,85.6,79.2,85.7,79.1,85.7z" class="st3"></path>
		</g>
	</g>
	<path d="M119.5,114.9c-0.1,1.8-0.3,3.6-0.6,5.4c-0.7,4.5-2,8.7-3.9,12.4c-5.1,9.8-14.7,16.2-30.2,16.2
		c-13.4,0-22.7-5.3-28.3-13.6c-0.1-0.2-0.2-0.3-0.3-0.5c0,0,0,0,0,0c-2.3-3.6-3.9-7.7-4.9-12.1c-0.2-0.8-0.3-1.6-0.5-2.3
		c-0.1-0.4-0.1-0.8-0.2-1.2c3.9,2.9,15.6,9.7,32.3,4.9c0.8-0.2,1.5-0.5,2.3-0.7c0.3-0.1,0.6-0.2,1-0.3c2.2-0.8,4.4-1.4,6.5-2
		C110,114.9,115.5,114.4,119.5,114.9z" class="st15"></path>
	<g class="st2">
		<g>
			<path d="M84.8,151.4c-23.3,0-37.8-14.7-38.8-39.4c0-0.9,0.3-1.7,0.9-2.3c0.6-0.6,1.4-1,2.3-1h71.3
				c0.9,0,1.7,0.3,2.3,1c0.6,0.6,0.9,1.4,0.9,2.3c-0.4,11.6-3.7,21.2-9.5,27.9C107.4,147.5,97.5,151.4,84.8,151.4z M49.2,110.1
				c-0.5,0-0.9,0.2-1.3,0.5c-0.3,0.3-0.5,0.8-0.5,1.3c1,23.8,14.9,38,37.4,38c31.3,0,36.9-23.8,37.4-38c0-0.5-0.2-0.9-0.5-1.3
				c-0.3-0.3-0.8-0.5-1.3-0.5H49.2z" class="st3"></path>
		</g>
	</g>
	<g class="st2">
		<g>
			<g>
				<path d="M116.4,136.3c-0.4,0-0.7-0.3-0.7-0.6c0-0.4,0.3-0.7,0.6-0.8c8.7-0.8,15.3-5.7,15.7-11.8
					c0.2-2.7-0.4-4.8-1.6-6.1c-1.3-1.4-3.3-1.7-4.6-1.7c-1,0-2,0.2-2.9,0.6c-0.4,0.2-0.8,0-0.9-0.4c-0.2-0.4,0-0.8,0.4-0.9
					c1.1-0.5,2.2-0.7,3.4-0.7c1.7,0,4,0.4,5.7,2.2c1.5,1.6,2.2,4.1,2,7.1C133,130,125.8,135.5,116.4,136.3
					C116.4,136.3,116.4,136.3,116.4,136.3z" class="st3"></path>
			</g>
			<g>
				<path d="M114.2,141.5c-0.7,0-1.3,0-1.9-0.1c-0.4,0-0.7-0.4-0.6-0.7c0-0.4,0.4-0.7,0.7-0.6c0.6,0,1.2,0.1,1.8,0.1
					c12.2,0,22.3-7.3,23-16.7c0.4-5.2-1.4-8.3-2.9-9.9c-2-2.2-5-3.4-8.4-3.4c-1.2,0-2.4,0.2-3.6,0.5c-0.4,0.1-0.8-0.1-0.9-0.5
					c-0.1-0.4,0.1-0.8,0.5-0.9c1.3-0.4,2.7-0.6,4-0.6c3.8,0,7.1,1.4,9.4,3.8c1.7,1.9,3.7,5.3,3.3,11
					C137.8,133.8,127.3,141.5,114.2,141.5z" class="st3"></path>
			</g>
		</g>
	</g>
	<g class="st7">
		<path d="M50.9,120.9c0,0,4.6,21.5,24.3,25.1C75.3,146.1,61,138.3,50.9,120.9z" class="st3"></path>
		<path d="M105.9,112.5h13.7c0,0-0.2,12.5-5.5,18.4C114.1,130.8,120.8,114.7,105.9,112.5z" class="st3"></path>
		<path d="M125.1,110.9c0,0,7.7-0.2,10.2,6.4C135.3,117.3,132.7,112.4,125.1,110.9z" class="st3"></path>
		<path d="M134.3,127.7c0,0-2.6,7.5-13.1,9.8C121.2,137.5,130.2,134,134.3,127.7z" class="st3"></path>
	</g>
	<ellipse ry="3.5" rx="23.4" cy="163.5" cx="84.8" class="st14"></ellipse>
	<linearGradient y2="119.1222" x2="86.219" y1="119.1222" x1="50.5881" gradientUnits="userSpaceOnUse" id="SVGID_2_">
		<stop style="stop-color:#F1F2F2" offset="0.2981"></stop>
		<stop style="stop-color:#F1F2F2" offset="0.94"></stop>
		<stop style="stop-color:#F1F2F2" offset="1"></stop>
	</linearGradient>
	<path d="M84.1,115.8c0,0,0.7,1.1-0.5,2.6c0,0,0.1,0.2,0.1,0.5c0,0.4-0.1,1.1-0.8,1.6c0,0,0.2,1.4-0.9,2.3
		c0,0,1,0.4,0.9,1.1l0,0c-4,1.2-7.7,1.6-11,1.7c-10.8,0.1-18.2-4.4-21.2-6.6c0,0,0.5-2,2.9-2.2c0,0,0.1,0,0.1,0c0,0,0.2-0.6,0.7-0.9
		c0.2-0.1,0.5-0.2,0.9-0.2c0,0,1.3-2.4,4.8-2.1c3.5,0.3,4,1.2,4,1.2s1.7-0.5,2.6-0.2c0,0,1.7-0.7,2.8,0c0,0,2.2-1.1,4.3,0.1
		c0,0,1.3-0.6,3,0.2c0,0,1.1-1.8,3.4-1.6c0,0,0.8-0.8,2.4-0.3c0,0,2.6-1,3.4-0.4C86.7,113.4,85.5,115,84.1,115.8z" class="st16"></path>
	<linearGradient y2="117.7518" x2="119.5046" y1="117.7518" x1="89.5328" gradientUnits="userSpaceOnUse" id="SVGID_3_">
		<stop style="stop-color:#F1F2F2" offset="0.2981"></stop>
		<stop style="stop-color:#F1F2F2" offset="0.94"></stop>
		<stop style="stop-color:#F1F2F2" offset="1"></stop>
	</linearGradient>
	<path d="M119.5,114.9c0,0-20.6,3.5-29.3,6.6c-0.3,0.1,0.4-2.8-0.3-3.8c-0.7-1.1-0.3-3.5,0.2-3.4
		c0.5,0.1,0.9,2.4,2.3,2.7c1.4,0.3,2.2-1.3,4.4-0.6c0,0,2.4-1.5,4.8-0.8c0,0,2-2.1,4.9-1.4c0,0,1.1-0.1,2.4-0.1c0.4,0,0.9,0,1.3,0
		c0,0,0,0,0,0h0c0,0,0,0,0,0c1.1,0,2.2,0.1,2.9,0.3C115.2,114.7,118.7,114.3,119.5,114.9z" class="st17"></path>
	<linearGradient y2="113.5771" x2="64.1255" y1="113.5771" x1="63.539" gradientUnits="userSpaceOnUse" id="SVGID_4_">
		<stop style="stop-color:#F1F2F2" offset="0.2981"></stop>
		<stop style="stop-color:#F1F2F2" offset="0.94"></stop>
		<stop style="stop-color:#F1F2F2" offset="1"></stop>
	</linearGradient>
	<circle r="0.3" cy="113.6" cx="63.8" class="st18"></circle>
	<linearGradient y2="118.278" x2="93.6036" y1="118.278" x1="93.0172" gradientUnits="userSpaceOnUse" id="SVGID_5_">
		<stop style="stop-color:#F1F2F2" offset="0.2981"></stop>
		<stop style="stop-color:#F1F2F2" offset="0.94"></stop>
		<stop style="stop-color:#F1F2F2" offset="1"></stop>
	</linearGradient>
	<circle r="0.3" cy="118.3" cx="93.3" class="st19"></circle>
	<linearGradient y2="116.718" x2="63.6833" y1="116.718" x1="63.0968" gradientUnits="userSpaceOnUse" id="SVGID_6_">
		<stop style="stop-color:#F1F2F2" offset="0.2981"></stop>
		<stop style="stop-color:#F1F2F2" offset="0.94"></stop>
		<stop style="stop-color:#F1F2F2" offset="1"></stop>
	</linearGradient>
	<circle r="0.3" cy="116.7" cx="63.4" class="st20"></circle>
	<linearGradient y2="114.4455" x2="100.7812" y1="114.4455" x1="100.1947" gradientUnits="userSpaceOnUse" id="SVGID_7_">
		<stop style="stop-color:#F1F2F2" offset="0.2981"></stop>
		<stop style="stop-color:#F1F2F2" offset="0.94"></stop>
		<stop style="stop-color:#F1F2F2" offset="1"></stop>
	</linearGradient>
	<circle r="0.3" cy="114.4" cx="100.5" class="st21"></circle>
	<linearGradient y2="112.6568" x2="78.5005" y1="112.6568" x1="77.5513" gradientUnits="userSpaceOnUse" id="SVGID_8_">
		<stop style="stop-color:#F1F2F2" offset="0.2981"></stop>
		<stop style="stop-color:#F1F2F2" offset="0.94"></stop>
		<stop style="stop-color:#F1F2F2" offset="1"></stop>
	</linearGradient>
	<circle r="0.5" cy="112.7" cx="78" class="st22"></circle>
	<linearGradient y2="116.4248" x2="73.1729" y1="116.4248" x1="72.2237" gradientUnits="userSpaceOnUse" id="SVGID_9_">
		<stop style="stop-color:#F1F2F2" offset="0.2981"></stop>
		<stop style="stop-color:#F1F2F2" offset="0.94"></stop>
		<stop style="stop-color:#F1F2F2" offset="1"></stop>
	</linearGradient>
	<circle r="0.5" cy="116.4" cx="72.7" class="st23"></circle>
	<linearGradient y2="114.1" x2="97.0509" y1="114.1" x1="96.1017" gradientUnits="userSpaceOnUse" id="SVGID_10_">
		<stop style="stop-color:#F1F2F2" offset="0.2981"></stop>
		<stop style="stop-color:#F1F2F2" offset="0.94"></stop>
		<stop style="stop-color:#F1F2F2" offset="1"></stop>
	</linearGradient>
	<circle r="0.5" cy="114.1" cx="96.6" class="st24"></circle>
	<linearGradient y2="114.6657" x2="53.6958" y1="114.6657" x1="53.2555" gradientUnits="userSpaceOnUse" id="SVGID_11_">
		<stop style="stop-color:#F1F2F2" offset="0.2981"></stop>
		<stop style="stop-color:#F1F2F2" offset="0.94"></stop>
		<stop style="stop-color:#F1F2F2" offset="1"></stop>
	</linearGradient>
	<circle r="0.2" cy="114.7" cx="53.5" class="st25"></circle>
	<linearGradient y2="120.683" x2="83.6635" y1="120.683" x1="50.5881" gradientUnits="userSpaceOnUse" id="SVGID_12_">
		<stop style="stop-color:#F1F2F2" offset="0.2981"></stop>
		<stop style="stop-color:#F1F2F2" offset="0.94"></stop>
		<stop style="stop-color:#F1F2F2" offset="1"></stop>
	</linearGradient>
	<path d="M82.9,120.5c0,0,0.2,1.4-0.9,2.3c0,0,1,0.4,0.9,1.1l0,0c-4,1.2-7.7,1.6-11,1.7c-10.8,0.1-18.2-4.4-21.2-6.6
		c0,0,0.5-2,2.9-2.2c0,0,0.1,0,0.1,0c0,0,0.2-0.6,0.7-0.9l0.9-0.2c0,0,0.4,2.6,3.3,3.3c0,0,0.8,1.6,4,1.8c0,0,3.5,2.2,7,1.5
		c0,0,1.3,1.1,3.6,0.9c2.3-0.2,2.6-1.5,2.6-1.5s1.6,1.2,3.4,0.5c1.8-0.7,2.1-2.3,2.1-2.3s0.5,0.4,2-1c0.1-0.1,0.2-0.2,0.4-0.2
		C83.7,119.4,83.6,120,82.9,120.5z" class="st26"></path>
	<linearGradient y2="117.5957" x2="96.1837" y1="117.5957" x1="96.0759" gradientUnits="userSpaceOnUse" id="SVGID_13_">
		<stop style="stop-color:#F1F2F2" offset="0.2981"></stop>
		<stop style="stop-color:#F1F2F2" offset="0.94"></stop>
		<stop style="stop-color:#F1F2F2" offset="1"></stop>
	</linearGradient>
	<path d="M96.1,117.6c0,0,0-0.1,0.1-0.2C96.2,117.9,96.1,117.6,96.1,117.6z" class="st27"></path>
	<linearGradient y2="115.7159" x2="108.869" y1="115.7159" x1="96.0736" gradientUnits="userSpaceOnUse" id="SVGID_14_">
		<stop style="stop-color:#F1F2F2" offset="0.2981"></stop>
		<stop style="stop-color:#F1F2F2" offset="0.94"></stop>
		<stop style="stop-color:#F1F2F2" offset="1"></stop>
	</linearGradient>
	<path d="M106.5,114.1c0,0,1.1-0.1,2.4-0.1c-1.4,0.1-2.8,0.6-3.3,0.4c-0.7-0.2-2,1.2-2.9,1c-0.9-0.1-1.9,0.8-1.9,0.8
		s-2.2-0.3-3.2,0c-0.8,0.2-1.2,0.9-1.4,1.2c0,0,0-0.1-0.1-0.2c-0.2-0.7,0.7-1,0.7-1s2.4-1.5,4.8-0.8
		C101.6,115.5,103.5,113.4,106.5,114.1z" class="st28"></path>
	<linearGradient y2="114.0149" x2="110.2387" y1="114.0149" x1="110.1976" gradientUnits="userSpaceOnUse" id="SVGID_15_">
		<stop style="stop-color:#F1F2F2" offset="0.2981"></stop>
		<stop style="stop-color:#F1F2F2" offset="0.94"></stop>
		<stop style="stop-color:#F1F2F2" offset="1"></stop>
	</linearGradient>
	<path d="M110.2,114C110.2,114,110.2,114,110.2,114L110.2,114C110.2,114,110.2,114,110.2,114
		C110.2,114,110.2,114,110.2,114z" class="st29"></path>
	<linearGradient y2="125.4941" x2="79.3107" y1="136.0072" x1="87.298" gradientUnits="userSpaceOnUse" id="SVGID_16_">
		<stop style="stop-color:#F0B378" offset="0.2981"></stop>
		<stop style="stop-color:#EDB178" offset="0.4983"></stop>
		<stop style="stop-color:#E3AB77" offset="0.6614"></stop>
		<stop style="stop-color:#D2A176" offset="0.8115"></stop>
		<stop style="stop-color:#BA9475" offset="0.9529"></stop>
		<stop style="stop-color:#B08E74" offset="1"></stop>
	</linearGradient>
	<path d="M81.3,133.4c0,0,3-1.1,4.8-4.3C86.1,129.1,84.5,133.8,81.3,133.4z" class="st30"></path>
</g>
<g class="st1">
	<g class="st2">
		<path d="M130.1,121.8c-1.2,0-2.2,1-2.2,2.2c0-1.2-1-2.2-2.2-2.2c1.2,0,2.2-1,2.2-2.2
			C127.9,120.9,128.9,121.8,130.1,121.8z" class="st3"></path>
	</g>
	<g class="st2">
		<path d="M148.4,131.5c-0.7,0-1.3,0.6-1.3,1.3c0-0.7-0.6-1.3-1.3-1.3c0.7,0,1.3-0.6,1.3-1.3
			C147.1,130.9,147.7,131.5,148.4,131.5z" class="st3"></path>
	</g>
	<g class="st2">
		<path d="M102.2,135.6c-0.7,0-1.3,0.6-1.3,1.3c0-0.7-0.6-1.3-1.3-1.3c0.7,0,1.3-0.6,1.3-1.3
			C100.9,135,101.5,135.6,102.2,135.6z" class="st3"></path>
	</g>
	<g class="st2">
		<path d="M125.8,161c-1.5,0.4-3.2,1-4.8,1.5c-12.5,4.3-20.9-1.5-22.9-3.1c2.8-1,6.9-2.7,13.7,0.3
			C116.9,162.2,120.6,161.9,125.8,161z" class="st4"></path>
	</g>
	<g class="st2">
		<path d="M144.7,157.5c-4.1,7.8-11.8,12.9-24.2,12.9c-10.7,0-18.2-4.3-22.7-10.9c0,0,0.1,0,0.1,0c0,0,0,0,0.1,0
			c2,1.6,10.4,7.4,22.9,3.1c1.6-0.6,3.3-1,4.8-1.5C139.4,156.4,141.8,156.9,144.7,157.5z" class="st5"></path>
	</g>
	<g class="st2">
		<path d="M120.6,172.5c-18.6,0-30.2-11.8-31-31.5c0-0.7,0.2-1.3,0.7-1.8c0.5-0.5,1.1-0.8,1.8-0.8h57
			c0.7,0,1.3,0.3,1.8,0.8c0.5,0.5,0.7,1.2,0.7,1.8c-0.2,4.5-0.9,8.6-2.1,12.3c-1.3,3.9-3.2,7.3-5.6,10
			C138.6,169.4,130.8,172.5,120.6,172.5z M92.1,139.5c-0.4,0-0.7,0.2-1,0.4c-0.3,0.3-0.4,0.6-0.4,1c0.8,19.1,11.9,30.4,29.9,30.4
			c10.8,0,29-4,29.9-30.4c0-0.4-0.1-0.8-0.4-1c-0.3-0.3-0.6-0.4-1-0.4H92.1z" class="st3"></path>
	</g>
	<g class="st2">
		<g>
			<path d="M145.8,160.4c-0.3,0-0.5-0.2-0.6-0.5c0-0.3,0.2-0.6,0.5-0.6c7-0.6,12.3-4.6,12.6-9.5
				c0.2-2.1-0.3-3.8-1.3-4.9c-1.1-1.1-2.6-1.4-3.7-1.4c-0.8,0-1.6,0.2-2.3,0.5c-0.3,0.1-0.6,0-0.7-0.3c-0.1-0.3,0-0.6,0.3-0.7
				c0.9-0.4,1.8-0.6,2.7-0.6c1.3,0,3.2,0.3,4.5,1.7c1.2,1.3,1.7,3.3,1.6,5.7C159.1,155.3,153.4,159.7,145.8,160.4
				C145.9,160.4,145.9,160.4,145.8,160.4z" class="st3"></path>
		</g>
		<g>
			<path d="M144.1,164.6c-0.5,0-1.1,0-1.5,0c-0.3,0-0.5-0.3-0.5-0.6c0-0.3,0.3-0.5,0.6-0.5c0.5,0,0.9,0,1.5,0
				c9.8,0,17.8-5.9,18.4-13.3c0.3-4.2-1.1-6.6-2.3-7.9c-1.6-1.7-4-2.7-6.7-2.7c-1,0-1.9,0.1-2.9,0.4c-0.3,0.1-0.6-0.1-0.7-0.4
				c-0.1-0.3,0.1-0.6,0.4-0.7c1-0.3,2.1-0.5,3.2-0.5c3,0,5.7,1.1,7.5,3.1c1.4,1.5,3,4.2,2.6,8.8C163,158.4,154.6,164.6,144.1,164.6z" class="st3"></path>
		</g>
	</g>
	<g class="st2">
		<ellipse ry="2.8" rx="18.7" cy="182.2" cx="120.6" class="st3"></ellipse>
	</g>
	<g class="st2">
		<g>
			<path d="M42.5,61c0,0,3.2,1.7,7.1,1.1s6.4,0.4,8,0.8c1.2,0.3,4.6,0.4,6.1,0.4c0.4,0,0.7,0.3,0.7,0.7
				c-0.1,6.2-7,6.1-9.4,5.7c-2.5-0.4-6.2-1.6-14.2,3.9c-8,5.5-14.6,1.6-14.6,1.6" class="st31"></path>
			<path d="M41.1,73.3C41.1,73.3,41.1,73.3,41.1,73.3c0.5,0.3,4.8,3.1,6,3.7c0.1,0,0.1,0.1,0.2,0.1
				c0.8,0.2,2.5,0.6,4.5,0.8c2.8,0.3,6,0.2,6.7-1c0.9-1.5,0.2-4.3-0.4-5.9" class="st31"></path>
			<path d="M57.7,69.8C57.7,69.8,57.7,69.8,57.7,69.8" class="st31"></path>
			<path d="M55.9,72.7c0,0-1.1-1.1-2.3-1.4s-4.3-0.4-5,0.3c0,0-1.5-1.2-2.3-1.2" class="st31"></path>
			<path d="M51.8,77.8c0,0,1.4,2.1-0.3,4.4s-8.9-1-10.8-2.8s-2.7-3.8-2-4.7" class="st31"></path>
			<path d="M40.8,79.4c-0.9-0.9-1.9-2.4-3.3-2.4c-2.8-0.1-2.1,3.9-1.1,5.3c2,2.7,6.7,5.5,9.8,3.1
				c1.2-0.9,0.9-2.2,0-3.1" class="st31"></path>
			<path d="M36.9,83c0,0-5.8,3.6-14-1.9" class="st31"></path>
			<path d="M24.1,81.8c0,0-10.3,3.1-16.1,7.5" class="st31"></path>
			<path d="M63.1,63.3C63.1,63.3,63.1,63.3,63.1,63.3" class="st31"></path>
			<path d="M8.4,65.6c0,0,11.5-2.4,18.7-6.1c7.2-3.7,17.1-6.2,19.3-5.7c2.2,0.5,12.3,5.7,13.8,6.7
				c0.3,0.2,0.6,0.5,0.9,0.7" class="st31"></path>
			<line y2="65.9" x2="64.1" y1="65.9" x1="64.1" class="st31"></line>
			<path d="M64.9,69.3c0.7,3.1,1.6,7.2,1.2,7.6c-0.6,0.8-3,1.5-4.6-0.1c-1.7-1.7-2.4-4.7-2.7-6.2" class="st31"></path>
			<path d="M58.7,69.7C58.7,69.7,58.7,69.7,58.7,69.7" class="st31"></path>
		</g>
		<path d="M108.7,119.4c0,0,6.4,6.4,7.1,14.9" class="st31"></path>
		<path d="M111.5,117.1c0,0,5.8,3.9,8.4,10.9" class="st31"></path>
		<path d="M93.2,93c0,0,6.4,9.8,9.3,12.4c0,0-1.6-10-4.3-13.8C98.3,91.6,98.2,94.1,93.2,93z" class="st32"></path>
		<path d="M56.6,109.4l8.7,13.3l35.8-13.8C101.1,109,70.2,114.5,56.6,109.4z" class="st32"></path>
		<path d="M46.2,123.2c0,0,4.3,6.7,6.9,8.2l-16.7,15.8c0,0-11-9.4-16.2-19.3C20.2,127.9,38.4,128.9,46.2,123.2z" class="st32"></path>
		<g>
			<path d="M80.5,73.4c1.8,4.3,9.6,21.4,23.2,36.4" class="st31"></path>
			<path d="M57.3,131.4L34,152.8c0,0-20.1-13.2-23.8-37.5l29.7-10.7" class="st31"></path>
			<path d="M13.2,114.2c3.6,21.5,20.1,34.2,23.2,36.4" class="st31"></path>
			<path d="M45,102.7l4.7-1.7l30.8-27.6c2.7,0.7,11.1,3.6,18.4,15.3c5.7,9.2,5.6,16.8,4.9,21l-38.9,14.8l-3.6,3.3" class="st31"></path>
			
				<ellipse ry="3.9" rx="0.6" cy="85.7" cx="102.2" class="st31" transform="matrix(0.8443 -0.5359 0.5359 0.8443 -30.0068 68.1236)"></ellipse>
			<path d="M100.1,82.4c0,0-2.4,2-2.8,3.9" class="st31"></path>
			<path d="M104,88.5c0,0-2.8,1.4-4.7,0.9" class="st31"></path>
			<path d="M45,102.7c2.7,5.7,8.6,17.3,16.3,25.2" class="st31"></path>
			<path d="M39.9,104.5c2.4,5.3,9,18.6,17.4,26.9" class="st31"></path>
			<line y2="108.6" x2="41.8" y1="106.4" x1="46.8" class="st31"></line>
			<line y2="128.8" x2="54.8" y1="125.4" x1="58.9" class="st31"></line>
			<path d="M49.7,101c0,0,7.1,13.9,15,23.7" class="st31"></path>
			<polyline points="103.7,109.8 106.5,115.8 105.7,118.7 90.1,115 106.5,115.8" class="st31"></polyline>
			<path d="M80.5,73.4L78.3,70c-0.5-0.8-1.7-1.1-2.5-0.6l-4.7,3c-0.8,0.5-1.1,1.7-0.6,2.5l3,4.7" class="st31"></path>
			<path d="M70,63.8c1.6,0.3,3,1.2,3.8,2.6l1.9,3" class="st31"></path>
			<path d="M68.2,68c0.4,0.4,0.8,0.8,1.1,1.3l1.9,3" class="st31"></path>
			<path d="M56.2,62.5C56.2,62.5,56.2,62.5,56.2,62.5c1.6-0.6,3.2-1,4.9-1.3c2.4-0.4,4.9-0.3,7.5,0.3
				c0.8,0.2,1.4,1,1.4,1.8c0,0.1,0,0.3,0,0.4c-0.1,1.1-0.6,2.6-1.8,4.2c-0.2,0.2-0.4,0.5-0.6,0.7c-0.4,0.4-0.9,0.6-1.4,0.6
				c-0.3,0-0.8,0-1.3,0c-1.4,0.1-3.4,0.4-6,1.4c-0.2,0.1-0.5,0.2-0.8,0.3c-0.9,0.3-1.8,0.8-2.9,1.2" class="st31"></path>
		</g>
	</g>
	<g class="st2">
		<path d="M125.8,161c-1.6,0.5-3.2,1-4.8,1.5c-12.5,4.3-21-1.5-23-3.1c2.8-1,7-2.7,13.7,0.3
			C116.9,162.2,120.6,161.9,125.8,161z" class="st33"></path>
	</g>
	<g class="st2">
		<path d="M144.8,157.5c-4.1,7.9-11.8,13-24.3,13c-10.8,0-18.3-4.3-22.7-11c0,0,0.1,0,0.1,0c0,0,0,0,0.1,0
			c2,1.6,10.5,7.4,23,3.1c1.7-0.6,3.3-1,4.8-1.5C139.5,156.4,141.8,156.8,144.8,157.5z" class="st8"></path>
	</g>
</g>
<g class="st1">
	<g class="st2">
		<path d="M97.4,159.1c-1.7,0.5-3.5,1-5.3,1.7c-13.6,4.7-22.9-1.6-25.1-3.4c3-1.1,7.6-2.9,15,0.4
			C87.7,160.4,91.7,160.1,97.4,159.1z" class="st4"></path>
	</g>
	<g class="st2">
		<path d="M118.2,155.3c-4.5,8.6-12.9,14.2-26.5,14.2c-11.8,0-19.9-4.7-24.8-12c0,0,0.1,0,0.1,0c0,0,0,0,0.1,0
			c2.2,1.7,11.4,8.1,25.1,3.4c1.8-0.6,3.6-1.1,5.3-1.7C112.3,154.1,114.9,154.5,118.2,155.3z" class="st5"></path>
	</g>
	<g class="st2">
		<path d="M91.7,171.7c-20.4,0-33.1-12.9-34-34.5c0-0.8,0.2-1.5,0.8-2c0.5-0.5,1.2-0.8,2-0.8h62.4c0.8,0,1.5,0.3,2,0.8
			c0.5,0.5,0.8,1.3,0.8,2c-0.4,10.1-3.3,18.6-8.4,24.4C111.5,168.3,102.9,171.7,91.7,171.7z M60.5,135.5c-0.4,0-0.8,0.2-1.1,0.5
			c-0.3,0.3-0.4,0.7-0.4,1.1c0.8,20.9,13.1,33.3,32.7,33.3c27.5,0,32.3-20.9,32.8-33.3c0-0.4-0.1-0.8-0.4-1.1
			c-0.3-0.3-0.7-0.5-1.1-0.5H60.5z" class="st3"></path>
	</g>
	<g class="st2">
		<g>
			<path d="M119.4,158.4c-0.3,0-0.6-0.2-0.6-0.6c0-0.3,0.2-0.6,0.6-0.7c7.6-0.7,13.4-5,13.8-10.4
				c0.2-2.3-0.3-4.2-1.4-5.3c-1.2-1.3-2.9-1.5-4.1-1.5c-0.9,0-1.7,0.2-2.5,0.5c-0.3,0.1-0.7,0-0.8-0.3c-0.1-0.3,0-0.7,0.3-0.8
				c0.9-0.4,2-0.6,3-0.6c1.5,0,3.5,0.3,5,1.9c1.3,1.4,1.9,3.6,1.7,6.3C133.9,152.9,127.7,157.7,119.4,158.4
				C119.4,158.4,119.4,158.4,119.4,158.4z" class="st3"></path>
		</g>
		<g>
			<path d="M117.5,163c-0.6,0-1.2,0-1.7-0.1c-0.3,0-0.6-0.3-0.6-0.7c0-0.3,0.3-0.6,0.7-0.6c0.5,0,1,0.1,1.6,0.1
				c10.7,0,19.5-6.4,20.1-14.6c0.3-4.6-1.2-7.2-2.6-8.7c-1.8-1.9-4.4-3-7.3-3c-1.1,0-2.1,0.2-3.2,0.5c-0.3,0.1-0.7-0.1-0.8-0.4
				c-0.1-0.3,0.1-0.7,0.4-0.8c1.1-0.4,2.3-0.5,3.5-0.5c3.3,0,6.2,1.2,8.2,3.3c1.5,1.6,3.3,4.6,2.9,9.6
				C138.2,156.2,129,163,117.5,163z" class="st3"></path>
		</g>
	</g>
	<g class="st2">
		<ellipse ry="3.1" rx="20.5" cy="182.3" cx="91.7" class="st3"></ellipse>
	</g>
	<g class="st2">
		<g>
			<path d="M82.1,110.7c0,0-2.2,0-3,2.5c-0.8,2.5,1.9,3.9,1.9,3.9s0.3,2,3.1,2.5c2.8,0.5,3.7-0.2,3.7-0.2
				s-0.4,3.5,2,4.8c0,0-0.7,1.9,1,3.2c1.7,1.3,3.7,0.2,4-0.5c0.4-0.7,0.5-1.8,0.5-1.8s2.3-1,3.2-2.3c0.9-1.3,0.8-1.8,0.8-1.8
				s2.1,0.5,2.6-1.9c0.5-2.4-1.6-3.5-2.3-3.6s-1.3,0-1.3,0s-1-1-2.6-1.4c-1.6-0.4-2.1-0.3-2.1-0.3s0.6-2.6-0.2-4.5s-2.4-2.1-2.4-2.1
				s-1.5-2.4-3.7-1.9c-2.1,0.4-2.8,3.4-2.8,3.4S83.8,108.7,82.1,110.7z" class="st8"></path>
		</g>
		<g>
			<g>
				<path d="M80.9,94c-0.4,0-0.7-0.1-1-0.2c-1.8-0.8-2.9-3.6-4.2-7.2c-0.4-1.1-0.8-2.2-1.3-3.3
					c-1.8-4.4-3.5-7.3-4.1-8.4c-0.1-0.2-0.2-0.3-0.4-0.4c-5.7-5.2-8.6-10.3-10.1-13c-0.4-0.7-0.7-1.2-0.9-1.5
					c-0.2-0.3-1.6-1.6-10.3-7.6c-0.3-0.2-0.3-0.6-0.2-0.9c0.2-0.3,0.6-0.3,0.9-0.2c9.8,6.9,10.4,7.6,10.6,7.9c0.3,0.3,0.6,0.9,1,1.6
					c1.5,2.7,4.3,7.6,9.9,12.7c0.2,0.2,0.4,0.4,0.6,0.7c0.6,1.1,2.4,4,4.2,8.5c0.5,1.1,0.9,2.3,1.3,3.3c1.1,3.1,2.2,5.9,3.6,6.5
					c0.3,0.2,0.7,0.2,1.1,0c0.5-0.2,0.9-0.7,1.2-1.4c0.8-1.9,1-5.5-0.6-9.5c-1-2.5-1.8-4.8-2.5-7.1c-0.1-0.3,0.1-0.7,0.4-0.8
					c0.3-0.1,0.7,0.1,0.8,0.4c0.7,2.2,1.5,4.6,2.5,7c1.5,3.8,1.7,7.9,0.6,10.5c-0.5,1-1.1,1.7-1.9,2C81.6,93.9,81.2,94,80.9,94z" class="st3"></path>
			</g>
			<g>
				<path d="M76.5,75.7c-1.1,0-2.2-0.2-3.3-0.7c-0.3-0.1-0.4-0.5-0.3-0.8c0.1-0.3,0.5-0.4,0.8-0.3
					c1.8,0.9,4.6,0.7,7.3-0.5c1.3-0.5,2.4-1,3.4-1.2c0.3-0.1,0.7,0.1,0.8,0.4c0.1,0.3-0.1,0.7-0.4,0.8c-0.9,0.3-2,0.7-3.3,1.2
					C80.6,75,78.6,75.7,76.5,75.7z" class="st3"></path>
			</g>
			<g>
				<path d="M97.9,96.3c-0.5,0-1-0.2-1.3-0.7c-2.7-4-1.9-9.3-1.7-10.4c-1.2-3-1.8-6.3-2-7.4c-5.6-2.1-11.8-6.5-12.7-7.2
					c-4-0.7-7.4-2-10.6-3.9l-1.4-0.9c-1.8-1.2-2.7-2.1-2.7-2.2c-0.2-0.2-0.2-0.6,0-0.9c0.2-0.2,0.6-0.2,0.9,0c0,0,0.9,0.9,2.5,2
					l1.4,0.9c3,1.9,6.4,3.1,10.3,3.8c0.1,0,0.2,0.1,0.3,0.1c0.1,0.1,6.9,5.1,12.8,7.2c0.2,0.1,0.4,0.3,0.4,0.5c0,0,0.6,4.1,2,7.7
					c0,0.1,0.1,0.2,0,0.4c0,0.1-1.1,5.8,1.5,9.6c0.1,0.2,0.3,0.2,0.3,0.1c0.1,0,0.2-0.1,0.3-0.3c1.3-5.4,2.1-9,2.1-9.7
					c0.1-1-0.8-6.6-1.4-10.2L91.8,66c-0.2-0.3-0.2-0.6,0.1-0.9c0.3-0.2,0.6-0.2,0.9,0.1l7.3,9c0.1,0.1,0.1,0.2,0.1,0.3
					c0.2,0.9,1.5,9.2,1.4,10.7c-0.1,1-1.2,5.9-2.2,9.9c-0.1,0.6-0.6,1.1-1.2,1.2C98.1,96.3,98,96.3,97.9,96.3z" class="st3"></path>
			</g>
			<g>
				<path d="M98,103c-0.1,0-0.2,0-0.3-0.1c-4.2-2.3-3.2-7.4-2.1-9.8c0.1-0.3,0.5-0.4,0.8-0.3c0.3,0.1,0.4,0.5,0.3,0.8
					c-0.1,0.2-2.4,5.4,1.1,7.9c0.9-1.6,3.2-5.8,3.6-6.8c0.1-0.3,0.5-2.1,1.1-6.3c0.3-1.8,0.6-3.8,0.8-5.5c0.4-2.9,0.5-4.1,0.5-4.4
					c0-0.1-0.1-0.3-0.2-0.5c-0.4-1.1-1.3-3.5-3-6.8c-0.2-0.3,0-0.7,0.3-0.8c0.3-0.2,0.7,0,0.8,0.3c1.7,3.3,2.7,5.8,3.1,6.9
					c0.1,0.3,0.2,0.4,0.2,0.5c0.1,0.2,0.2,0.4-0.4,5c-0.2,1.7-0.5,3.7-0.8,5.5c-0.6,3.8-1,6-1.2,6.6c-0.6,1.3-3.9,7.3-4,7.5
					c-0.1,0.1-0.2,0.2-0.4,0.3C98.2,103,98.1,103,98,103z" class="st3"></path>
			</g>
			<g>
				<path d="M108.5,102.2c-1.2,0-2.3-0.4-3.2-1.2c-3-2.7-3.3-8.8-3.3-9.1c0-0.3,0.2-0.6,0.6-0.6c0.3,0,0.6,0.2,0.6,0.6
					c0,0.1,0.3,5.9,2.9,8.2c0.6,0.6,1.3,0.8,2.1,0.9c0-1.9-0.1-7.2-0.1-8c0-0.7-1.9-9.1-3.2-14.3c-3.9-6.8-9.8-17-10.6-17.8
					c-0.5-0.5-5.3-3.1-9.1-5.3c-5-2.7-10.1-5.6-11.2-6.5l-0.3-0.2c-0.4-0.3-0.5-0.4-3.1-3c-0.2-0.2-0.2-0.6,0-0.9
					c0.2-0.2,0.6-0.2,0.9,0c2.6,2.5,2.7,2.6,3,2.9l0.3,0.2c1,0.8,6.3,3.8,11,6.4c5.5,3,8.9,4.9,9.4,5.5c1.1,1.1,9.8,16.4,10.8,18.1
					c0,0.1,0.1,0.1,0.1,0.2c0.5,2.3,3.2,13.7,3.2,14.6c0,0.9,0.1,8.5,0.1,8.6c0,0.3-0.2,0.6-0.6,0.6
					C108.8,102.2,108.6,102.2,108.5,102.2z" class="st3"></path>
			</g>
			<g>
				<g>
					<path d="M111.1,93.7c-1.8,0-2.9-1.3-3.3-2.2c-0.1-0.3,0-0.7,0.3-0.8c0.3-0.1,0.7,0,0.8,0.3c0.1,0.2,0.9,2,3,1.4
						c-0.6-3.3-1.4-6.9-1.5-7.3c-0.2-0.4-2.3-5.9-3.6-9.1c-0.1-0.2-0.2-0.4-0.4-0.5c-1.5-1.6-6.7-6.8-8.6-8.9
						c-0.2-0.2-0.2-0.6,0-0.9c0.2-0.2,0.6-0.2,0.9,0c2,2.2,7.5,7.8,8.6,8.9c0.3,0.3,0.5,0.6,0.6,1c2,5.2,3.4,8.7,3.6,9
						c0.3,0.5,1.3,5.9,1.7,8.1c0.1,0.3-0.1,0.6-0.4,0.7C112.3,93.5,111.7,93.7,111.1,93.7z" class="st3"></path>
				</g>
			</g>
		</g>
		<g class="st9">
			<path d="M79.5,114.1c0,0,0.7,2.4,3.1,2.8c2.4,0.4,2.6-2,2.5-2.1C85.1,114.8,82.3,116.4,79.5,114.1z" class="st10"></path>
		</g>
		<g class="st9">
			<path d="M85,108.5c0,0,0.3,2.6,3,2.7c2.7,0.2,2.9-2.2,2.9-2.2S87.9,110.3,85,108.5z" class="st10"></path>
		</g>
		<g class="st9">
			<path d="M91.4,124.7c-0.2-0.3-0.9-0.3-1,0.1c-0.3,0.7,0.1,1.6,0.8,2c0.6,0.4,1.5,0.5,2.2,0.3c0.4-0.1,0.8-0.4,1-0.8
				c0.1-0.2,0.1-0.4,0-0.6c-0.2-0.2-0.5,0-0.7,0c-0.4,0.1-0.9,0.2-1.3,0C91.8,125.5,91.7,125,91.4,124.7z" class="st10"></path>
		</g>
		<g class="st9">
			<path d="M99.3,119.4c-0.1,0.4,0.2,0.9,0.6,0.8c0.7-0.1,1.3-0.9,1.4-1.6c0-0.7-0.3-1.5-0.8-2
				c-0.3-0.3-0.7-0.5-1.2-0.5c-0.2,0-0.4,0.1-0.5,0.3c-0.1,0.3,0.2,0.5,0.4,0.6c0.3,0.3,0.6,0.7,0.6,1.1
				C99.8,118.7,99.4,119.1,99.3,119.4z" class="st10"></path>
		</g>
		<g class="st9">
			<path d="M91.3,119.4c-0.4-0.2-0.8,0.4-0.5,0.7c0.2,0.2,0.5,0.4,1,0.5c0.9,0.1,1.5-0.5,1.4-0.7s-0.2-0.4-0.9-0.2
				C92,119.8,91.6,119.6,91.3,119.4z" class="st10"></path>
		</g>
		<g class="st9">
			<path d="M85.8,116.5c0,0-0.2,0.6-0.7,0.8c0,0,1.4,0.9,2.6,0.8c0,0,0.2-1.3,1.2-2.3
				C88.9,115.8,87.5,116.8,85.8,116.5z" class="st10"></path>
		</g>
		<g class="st9">
			<path d="M86.2,119.3c-2.6,0.1-4.3-1.3-4.3-1.3s0.8,0.2,1.5,0.1C83.4,118.2,84.8,119,86.2,119.3z" class="st10"></path>
		</g>
		<g>
			<path d="M63.9,128.1c-1.3,0-2.4,1.1-2.4,2.4c0-1.3-1.1-2.4-2.4-2.4c1.3,0,2.4-1.1,2.4-2.4
				C61.6,127,62.6,128.1,63.9,128.1z" class="st3"></path>
		</g>
		<g>
			<path d="M117.5,117.5c-0.8,0-1.4,0.6-1.4,1.4c0-0.8-0.6-1.4-1.4-1.4c0.8,0,1.4-0.6,1.4-1.4
				C116,116.8,116.7,117.5,117.5,117.5z" class="st3"></path>
		</g>
		<g>
			<path d="M86.6,100.5c-0.8,0-1.4,0.6-1.4,1.4c0-0.8-0.6-1.4-1.4-1.4c0.8,0,1.4-0.6,1.4-1.4
				C85.2,99.9,85.8,100.5,86.6,100.5z" class="st3"></path>
		</g>
		<g>
			<g>
				<path d="M73,98.8h-1.4c-0.1,0-0.2-0.1-0.2-0.2c0-0.1,0.1-0.2,0.2-0.2H73c0.1,0,0.2,0.1,0.2,0.2
					C73.2,98.8,73.1,98.8,73,98.8z" class="st3"></path>
			</g>
			<g>
				<path d="M70.7,98.8h-1.4c-0.1,0-0.2-0.1-0.2-0.2c0-0.1,0.1-0.2,0.2-0.2h1.4c0.1,0,0.2,0.1,0.2,0.2
					C70.9,98.8,70.8,98.8,70.7,98.8z" class="st3"></path>
			</g>
			<g>
				<path d="M71.1,98.4c-0.1,0-0.2-0.1-0.2-0.2v-1.4c0-0.1,0.1-0.2,0.2-0.2c0.1,0,0.2,0.1,0.2,0.2v1.4
					C71.3,98.3,71.2,98.4,71.1,98.4z" class="st3"></path>
			</g>
			<g>
				<path d="M71.1,100.7c-0.1,0-0.2-0.1-0.2-0.2v-1.4c0-0.1,0.1-0.2,0.2-0.2c0.1,0,0.2,0.1,0.2,0.2v1.4
					C71.3,100.6,71.2,100.7,71.1,100.7z" class="st3"></path>
			</g>
		</g>
		<g>
			<g>
				<g>
					<path d="M85.2,105.9c0.7-0.7,1.6-1.1,2.5-1c1,0,1.9,0.4,2.6,1.2c0.2,0.2,0.4,0.4,0.5,0.7c0,0,0,0,0.1,0
						c0.2,0,0.4,0.1,0.7,0.2c0.9,0.4,1.6,1.7,1.9,2.9c0.5,1.6,0.3,3.1,0.2,3.8c0.1,0,0.3,0,0.4,0h0c0.1,0,0.2,0,0.3,0
						c1.6,0,3,0.7,3.9,1.8c0.1,0,0.2-0.1,0.3-0.1c1.7-0.2,3.3,0.9,3.6,2.6c0.2,0.8,0,1.6-0.5,2.3c-0.5,0.6-1.1,1.1-1.9,1.2
						c-0.1,0-0.2,0-0.4,0c-0.3,0.9-0.8,1.8-1.5,2.5c-0.7,0.7-1.5,1.2-2.5,1.5c0,0.1,0,0.3,0,0.4c-0.1,0.8-0.5,1.5-1.1,2
						c-0.7,0.5-1.5,0.7-2.3,0.5c-1.7-0.3-2.9-1.9-2.7-3.6c0-0.1,0-0.2,0.1-0.3c-1.1-0.9-1.8-2.3-1.9-3.9c0-0.2,0-0.5,0-0.7
						c-0.7,0.2-2.1,0.4-3.8-0.1c-1.2-0.3-2.5-1-2.9-1.8c-0.1-0.2-0.2-0.6-0.2-0.8c-0.2-0.2-0.5-0.3-0.7-0.5
						c-0.7-0.7-1.2-1.6-1.2-2.6c0-1.1,0.5-2.2,1.4-2.9c0.6-0.5,1.3-0.7,2.1-0.8c0.5-1.1,1.5-1.7,1.9-1.9c0-0.7,0.2-1.5,0.7-2.1
						C84.9,106.2,85,106,85.2,105.9 M90.6,110.9c0.1-0.1,0.1-0.1,0.2-0.2c0.8-1.1,0.5-3-0.8-4.3c-0.6-0.6-1.4-1-2.2-1
						c-1,0-1.9,0.4-2.5,1.2c-0.4,0.6-0.6,1.2-0.6,1.9v0c0,0.2,0,0.4,0.1,0.6c0.2,0.9,0.8,1.6,1.7,2.1l0,0
						C87.9,112,89.7,111.8,90.6,110.9 M82.3,110.8c-0.7,0-1.3,0.2-1.9,0.7c-0.8,0.6-1.2,1.5-1.2,2.5c0,0.8,0.4,1.7,1,2.2
						c1.4,1.2,3.3,1.6,4.3,0.7c0.1-0.1,0.1-0.1,0.2-0.2c0.9-0.9,1-2.7,0.2-4.2c-0.4-0.8-1.2-1.4-2.1-1.6
						C82.8,110.9,82.6,110.8,82.3,110.8C82.4,110.8,82.4,110.8,82.3,110.8 M84.1,109c-0.4,0.2-1,0.7-1.4,1.4c0.1,0,0.2,0,0.3,0.1
						c1,0.2,1.9,0.9,2.4,1.9c0.9,1.7,0.8,3.7-0.3,4.8c-0.1,0.1-0.2,0.1-0.2,0.2l0,0c-0.1,0.1-0.1,0.1-0.2,0.1c1.1,0.7,2.2,1,3,1
						c0-0.1,0-0.1,0.1-0.2c0-0.1,0.1-0.2,0.1-0.3c0-0.1,0.1-0.2,0.1-0.3c0,0,0,0,0,0c0-0.1,0.1-0.2,0.1-0.3l0-0.1
						c0-0.1,0.1-0.2,0.1-0.2l0-0.1c0-0.1,0.1-0.1,0.1-0.2l0.1-0.1c0-0.1,0.1-0.1,0.1-0.2l0.1-0.1c0.1-0.1,0.1-0.1,0.2-0.2l0.1-0.1
						c0.1-0.1,0.1-0.1,0.2-0.2l0.1-0.1c0.2-0.2,0.3-0.4,0.5-0.5l0.1,0l0.1,0c0.1-0.1,0.1-0.1,0.2-0.2l0.1-0.1
						c0.1-0.1,0.2-0.1,0.2-0.2l0.1,0c0.1-0.1,0.2-0.1,0.2-0.2l0.1-0.1c0.1-0.1,0.2-0.1,0.2-0.1l0.1,0c0.1-0.1,0.2-0.1,0.3-0.1
						c0,0,0.1,0,0.1,0c0.1,0,0.2-0.1,0.2-0.1c0,0,0.1,0,0.1,0c0.1,0,0.2-0.1,0.3-0.1c0.1-0.1,0.2-0.1,0.3-0.1c0.1,0,0.1,0,0.2-0.1
						c0-0.9-0.4-2-1-3.1c-0.1,0.1-0.1,0.2-0.2,0.3c-1,1.3-3.2,1.5-5,0.6c-1-0.5-1.7-1.3-1.9-2.4C84.2,109.2,84.2,109.1,84.1,109
						 M84.2,117.7c-0.9,0.3-2,0.2-3-0.2c0,0.1,0,0.1,0.1,0.1c0.3,0.6,1.5,1.3,2.6,1.6v0c1.6,0.5,3,0.2,3.6,0.1c0-0.1,0-0.2,0.1-0.3
						C86.4,118.9,85.1,118.3,84.2,117.7 M93.2,113.5c0.1-0.6,0.4-2-0.1-3.6c-0.3-1-1-2.3-1.6-2.6c0,0,0,0,0,0c0.4,1,0.5,2,0.2,2.9
						c0.7,1.1,1.1,2.3,1.2,3.4C93,113.6,93.1,113.5,93.2,113.5 M91.5,114.7c-0.1,0-0.1,0.1-0.2,0.1l-0.1,0c-0.1,0-0.1,0.1-0.2,0.1
						l-0.1,0c-0.1,0.1-0.2,0.1-0.2,0.2c0,0,0,0,0,0l0,0c-0.1,0-0.1,0.1-0.2,0.1l-0.1,0.1c-0.1,0-0.1,0.1-0.2,0.1l-0.1,0.1
						c-0.2,0.2-0.3,0.3-0.5,0.5l0,0c-0.1,0.1-0.1,0.2-0.2,0.2l-0.1,0.1c0,0.1-0.1,0.1-0.1,0.2c0,0-0.1,0.1-0.1,0.1
						c0,0.1-0.1,0.1-0.1,0.2c0,0,0,0.1,0,0.1c0,0.1-0.1,0.1-0.1,0.2c0,0,0,0.1,0,0.1c0,0.1-0.1,0.1-0.1,0.2l0,0.1
						c0,0.1-0.1,0.2-0.1,0.2c0,0,0,0,0,0.1c0,0.1-0.1,0.2-0.1,0.2c0,0.1-0.1,0.2-0.1,0.3c0,0.1-0.1,0.2-0.1,0.3
						c0,0.1-0.1,0.2-0.1,0.3c0,0,0,0,0,0c-0.1,0.5-0.1,1-0.1,1.5c0.1,1.5,0.7,2.8,1.8,3.6c0.1,0.1,0.1,0.2,0.1,0.3
						c0,0.1-0.1,0.3-0.1,0.4c-0.2,1.4,0.8,2.7,2.2,3c0.7,0.1,1.4,0,1.9-0.4c0.5-0.4,0.9-1,0.9-1.6c0-0.1,0-0.3,0-0.5
						c0-0.1,0.1-0.2,0.2-0.3c0.9-0.3,1.8-0.8,2.4-1.5c0.7-0.7,1.1-1.5,1.4-2.5c0-0.1,0.1-0.2,0.3-0.2c0.2,0,0.3,0,0.5,0
						c0.7-0.1,1.2-0.4,1.6-1c0.4-0.5,0.5-1.2,0.4-1.9c-0.3-1.4-1.6-2.4-3-2.2c-0.1,0-0.2,0-0.4,0.1c-0.1,0-0.2,0-0.3-0.1
						c-0.8-1.1-2.2-1.7-3.6-1.7c-0.1,0-0.2,0-0.3,0h0c-0.3,0-0.6,0-0.9,0.1c-0.1,0-0.2,0-0.3,0.1c-0.1,0-0.2,0-0.3,0.1
						c-0.1,0-0.2,0.1-0.3,0.1c-0.1,0-0.2,0.1-0.3,0.1c-0.1,0-0.2,0.1-0.3,0.1l-0.1,0C91.7,114.6,91.6,114.7,91.5,114.7L91.5,114.7z
						 M90.6,116.7c1-1,2.6-1.3,3.7-0.5c0.5,0.3,0.8,0.9,0.9,1.5c0.1,0.9-0.3,1.8-1,2.6c-0.7,0.7-1.7,1.1-2.5,1
						c-0.7-0.1-1.2-0.4-1.5-0.8C89.4,119.3,89.6,117.7,90.6,116.7 M93.9,119.9c0.6-0.6,0.9-1.4,0.9-2.2c-0.1-0.5-0.3-0.9-0.7-1.1
						c-0.9-0.6-2.2-0.4-3.1,0.5c-0.8,0.9-1,2.2-0.4,3.1c0.2,0.4,0.7,0.6,1.2,0.6C92.5,120.8,93.3,120.5,93.9,119.9 M93,121.6
						c0.3-0.3,0.8-0.2,1.2,0.2c0.4,0.4,0.5,0.9,0.2,1.2c-0.3,0.3-0.8,0.2-1.2-0.2C92.8,122.4,92.7,121.9,93,121.6 M95.6,119
						c0.3-0.3,0.8-0.2,1.2,0.2c0.4,0.4,0.5,0.9,0.2,1.2c-0.3,0.3-0.8,0.2-1.2-0.2C95.4,119.8,95.3,119.3,95.6,119" class="st11"></path>
				</g>
				<g>
					<path d="M90.8,118.8C90.8,118.8,90.8,118.8,90.8,118.8c-0.1,0-0.2-0.1-0.2-0.2c0,0,0.4-1.9,2-1.9
						c0.1,0,0.2,0.1,0.2,0.1c0,0.1-0.1,0.2-0.1,0.2c-1.3,0.1-1.7,1.6-1.7,1.7C90.9,118.8,90.9,118.8,90.8,118.8z" class="st11"></path>
				</g>
			</g>
			<g>
				<path d="M92.3,118.4C92.3,118.4,92.3,118.4,92.3,118.4l-1.1-0.8c-0.1-0.1-0.1-0.2,0-0.2c0.1-0.1,0.2-0.1,0.2,0
					l1,0.8c0.1,0.1,0.1,0.2,0,0.2C92.4,118.4,92.4,118.4,92.3,118.4z" class="st11"></path>
			</g>
		</g>
	</g>
	<g class="st2">
		<path d="M97.5,159.1c-1.7,0.5-3.5,1.1-5.3,1.7c-13.8,4.8-23.2-1.7-25.3-3.4c3.1-1.1,7.7-3,15.2,0.4
			C87.7,160.3,91.7,160.1,97.5,159.1z" class="st33"></path>
	</g>
	<g class="st2">
		<path d="M118.5,155.2c-4.5,8.7-13,14.3-26.7,14.3c-11.9,0-20.1-4.7-25.1-12.1c0,0,0.1,0,0.1,0c0,0,0,0,0.1,0
			c2.2,1.7,11.6,8.2,25.3,3.4c1.8-0.6,3.6-1.1,5.3-1.7C112.5,154,115.2,154.5,118.5,155.2z" class="st8"></path>
	</g>
</g>
<g class="st1">
	<g class="st2">
		<path d="M139,118.3c-1.3,0-2.4,1.1-2.4,2.4c0-1.3-1.1-2.4-2.4-2.4c1.3,0,2.4-1.1,2.4-2.4
			C136.5,117.2,137.6,118.3,139,118.3z" class="st34"></path>
	</g>
	<g class="st2">
		<path d="M159.7,129.2c-0.8,0-1.5,0.6-1.5,1.5c0-0.8-0.6-1.5-1.5-1.5c0.8,0,1.5-0.6,1.5-1.5
			C158.2,128.5,158.9,129.2,159.7,129.2z" class="st34"></path>
	</g>
	<g class="st2">
		<path d="M107.4,133.8c-0.8,0-1.5,0.6-1.5,1.5c0-0.8-0.6-1.5-1.5-1.5c0.8,0,1.5-0.6,1.5-1.5
			C106,133.1,106.6,133.8,107.4,133.8z" class="st34"></path>
	</g>
	<linearGradient y2="148.0952" x2="134.8122" y1="148.0952" x1="96.9512" gradientUnits="userSpaceOnUse" id="SVGID_17_">
		<stop style="stop-color:#EFE3D6" offset="0.2981"></stop>
		<stop style="stop-color:#EEE0D3" offset="0.7348"></stop>
		<stop style="stop-color:#EBD9CD" offset="1"></stop>
	</linearGradient>
	<path d="M134.8,147.8c-1.9,0.5-3.8,1.2-5.8,1.8c-0.3,0.1-0.6,0.2-0.9,0.3c-16.1,5.6-27.5-1-31.2-3.7
		c3.9-1.4,9.4-4.1,18.4-0.1C122.5,149.4,127.6,149,134.8,147.8z" class="st35"></path>
	<linearGradient y2="157.7353" x2="159.0139" y1="157.7353" x1="96.9512" gradientUnits="userSpaceOnUse" id="SVGID_18_">
		<stop style="stop-color:#F8F1EA" offset="0.2981"></stop>
		<stop style="stop-color:#F7EEE7" offset="0.7026"></stop>
		<stop style="stop-color:#F4E7DE" offset="1"></stop>
	</linearGradient>
	<path d="M159,142.5c-0.1,1.6-0.3,3.3-0.5,4.8c-0.6,4.1-1.8,7.9-3.5,11.2c-4.6,8.8-13.2,14.6-27.2,14.6
		c-12.1,0-20.5-4.8-25.5-12.3c-0.1-0.2-0.2-0.3-0.3-0.5c0,0,0,0,0,0c-2.4-3.8-4-8.2-4.8-13c-0.1-0.4-0.1-0.7-0.2-1.1
		c3.7,2.7,15,9.3,31.2,3.7c0.3-0.1,0.6-0.2,0.9-0.3c2-0.7,3.9-1.3,5.8-1.8C150.4,142.5,155.4,142,159,142.5z" class="st36"></path>
	<g>
		<linearGradient y2="162.6578" x2="134.0967" y1="162.6578" x1="102.8195" gradientUnits="userSpaceOnUse" id="SVGID_19_">
			<stop style="stop-color:#EFE3D6" offset="0.2981"></stop>
			<stop style="stop-color:#EEE0D3" offset="0.7348"></stop>
			<stop style="stop-color:#EBD9CD" offset="1"></stop>
		</linearGradient>
		<path d="M134.1,162.6c-1.7,0.5-3.6,1.1-5.4,1.7c-14.1,4.9-23.6-1.7-25.9-3.5c3.1-1.1,7.8-3,15.5,0.4
			C124.1,163.8,128.2,163.5,134.1,162.6z" class="st37"></path>
	</g>
	<g class="st38">
		<linearGradient y2="165.6668" x2="155.5242" y1="165.6668" x1="102.6359" gradientUnits="userSpaceOnUse" id="SVGID_20_">
			<stop style="stop-color:#F8F1EA" offset="0.2981"></stop>
			<stop style="stop-color:#F7EEE7" offset="0.7026"></stop>
			<stop style="stop-color:#F4E7DE" offset="1"></stop>
		</linearGradient>
		<path d="M155.5,158.6c-4.6,8.8-13.3,14.6-27.3,14.6c-12.1,0-20.5-4.8-25.6-12.3c0,0,0.1,0,0.1,0c0,0,0,0,0.1,0
			c2.2,1.8,11.8,8.3,25.9,3.5c1.9-0.6,3.7-1.1,5.4-1.7C149.5,157.3,152.2,157.8,155.5,158.6z" class="st39"></path>
	</g>
	<g class="st2">
		<path d="M128.2,175.5c-21,0-34.1-13.3-35-35.6c0-0.8,0.2-1.5,0.8-2.1c0.5-0.6,1.3-0.9,2-0.9h64.4
			c0.8,0,1.5,0.3,2,0.9c0.5,0.6,0.8,1.3,0.8,2.1c-0.2,5.1-1,9.7-2.3,13.9c-1.5,4.4-3.6,8.2-6.3,11.3
			C148.6,172,139.7,175.5,128.2,175.5z M96,138.2c-0.4,0-0.8,0.2-1.1,0.5c-0.3,0.3-0.5,0.7-0.4,1.2c0.9,21.5,13.5,34.4,33.8,34.4
			c12.2,0,32.7-4.5,33.8-34.4c0-0.4-0.1-0.8-0.4-1.2c-0.3-0.3-0.7-0.5-1.1-0.5H96z" class="st34"></path>
	</g>
	<g class="st2">
		<g>
			<path d="M156.8,161.8c-0.3,0-0.6-0.2-0.6-0.6c0-0.3,0.2-0.7,0.6-0.7c7.9-0.7,13.8-5.2,14.2-10.7
				c0.2-2.4-0.3-4.3-1.4-5.5c-1.2-1.3-3-1.6-4.2-1.6c-0.9,0-1.8,0.2-2.6,0.5c-0.3,0.1-0.7,0-0.8-0.3c-0.1-0.3,0-0.7,0.3-0.8
				c1-0.4,2-0.7,3.1-0.7c1.5,0,3.6,0.3,5.1,2c1.4,1.5,2,3.7,1.8,6.5C171.8,156.1,165.3,161.1,156.8,161.8
				C156.8,161.8,156.8,161.8,156.8,161.8z" class="st34"></path>
		</g>
		<g>
			<path d="M154.8,166.5c-0.6,0-1.2,0-1.7-0.1c-0.3,0-0.6-0.3-0.6-0.7c0-0.3,0.3-0.6,0.7-0.6c0.5,0,1.1,0.1,1.7,0.1
				c11,0,20.2-6.6,20.8-15.1c0.3-4.7-1.3-7.5-2.6-9c-1.8-2-4.5-3-7.6-3c-1.1,0-2.2,0.2-3.3,0.5c-0.3,0.1-0.7-0.1-0.8-0.4
				c-0.1-0.3,0.1-0.7,0.4-0.8c1.2-0.4,2.4-0.5,3.6-0.5c3.4,0,6.4,1.2,8.5,3.4c1.6,1.7,3.4,4.8,3,9.9
				C176.1,159.6,166.7,166.5,154.8,166.5z" class="st34"></path>
		</g>
	</g>
	<g class="st6">
		<g>
			<path d="M164.6,138.9c0,0,6.9-0.2,9.2,5.8C173.9,144.7,171.5,140.2,164.6,138.9z" class="st34"></path>
		</g>
		<g>
			<path d="M172.9,154.1c0,0-2.4,6.8-11.8,8.9C161.1,162.9,169.2,159.8,172.9,154.1z" class="st34"></path>
		</g>
	</g>
	<g class="st2">
		<ellipse ry="3.2" rx="21.1" cy="186.5" cx="128.2" class="st34"></ellipse>
	</g>
	<g class="st2">
		<g>
			<g>
				<path d="M86.7,60c-0.5,0-1-0.1-1.4-0.2c-4.1-1-6.8-5.8-7-6.4c-0.1-0.2-0.2-0.4-0.3-0.7c-1.2-2.5-3.1-6.3-12.6-9.5
					c-5.7-1.9-8.6-5.3-10.1-7.8c-1.6-2.7-1.9-5-1.9-5.1c0-0.3,0.2-0.7,0.6-0.7c0.3,0,0.7,0.2,0.7,0.6c0,0,0.2,2.1,1.7,4.7
					c2,3.4,5.1,5.8,9.4,7.2c10,3.4,12,7.4,13.4,10.1c0.1,0.2,0.2,0.4,0.3,0.6c0.3,0.5,2.6,4.9,6.2,5.7c1.5,0.4,3.1,0,4.6-1.1
					c0.1,0,0.1-0.1,0.1-0.1c0,0,0-0.1,0-0.2c-1.2-1.7-3.3-4.7-3.9-6c-0.1-0.2-0.2-0.5-0.3-0.8c-0.7-1.8-1.6-4.3-4.3-6.9
					c-3.3-3.2-4-7.5-4-7.7c-0.1-0.3,0.2-0.7,0.5-0.7c0.3-0.1,0.7,0.2,0.7,0.5c0,0,0.6,4,3.7,7c2.9,2.8,3.9,5.5,4.6,7.3
					c0.1,0.3,0.2,0.5,0.3,0.8c0.4,0.9,1.8,3.1,3.7,5.8c0.2,0.3,0.3,0.7,0.3,1.1c-0.1,0.4-0.3,0.7-0.6,1C89.5,59.5,88.1,60,86.7,60z" class="st34"></path>
			</g>
			<g>
				<path d="M74.5,62.1c-3.5,0-8.1-9.5-8.5-10.9c-0.4-1.7-0.7-8-0.8-8.2c0-0.3,0.2-0.6,0.6-0.7c0.4,0,0.6,0.2,0.7,0.6
					c0,0.1,0.3,6.4,0.7,8c0.4,1.8,5.1,10.1,7.3,10c2-0.2,4.7-3.9,5.5-5.3c0.2-0.3,0.6-0.4,0.9-0.2c0.3,0.2,0.4,0.6,0.2,0.9
					c-0.3,0.6-3.4,5.6-6.5,5.9C74.6,62.1,74.5,62.1,74.5,62.1z" class="st34"></path>
			</g>
			<g>
				<path d="M76.6,56.8C76.6,56.8,76.5,56.8,76.6,56.8c-0.4-0.1-0.7-0.4-0.6-0.7c0,0,0.2-1.7-0.2-2.7
					c-0.7-1.5-2.5-4-3.2-4.1c-0.3,0-0.6-0.3-0.5-0.6c0-0.8-0.1-2.1-0.4-2.6c-0.2-0.3-0.1-0.7,0.2-0.9c0.3-0.2,0.7-0.1,0.9,0.2
					c0.5,0.7,0.6,2.1,0.6,2.9c1.5,0.8,3.3,3.8,3.7,4.6c0.6,1.4,0.3,3.3,0.3,3.4C77.2,56.6,76.9,56.8,76.6,56.8z" class="st34"></path>
			</g>
			<g>
				<path d="M64.7,59.3c-0.8,0-1.6-0.4-2.3-1.2c-2.3-2.6-3.4-9-3.1-11.4c0.4-3.4,1.8-5.6,3.5-5.6c0,0,0,0,0,0
					c0.3,0,0.6,0.3,0.6,0.6c0,0.3-0.3,0.6-0.6,0.6c0,0,0,0,0,0c-0.8,0-1.9,1.7-2.3,4.5c-0.3,2.1,0.7,8.1,2.7,10.4
					c0.5,0.5,0.9,0.8,1.4,0.8c0,0,0,0,0,0c2.9,0,3.7-2.2,3.7-2.3c0.1-0.3,0.5-0.5,0.8-0.4c0.3,0.1,0.5,0.5,0.4,0.8
					C69.6,56.2,68.5,59.3,64.7,59.3C64.7,59.3,64.7,59.3,64.7,59.3z" class="st34"></path>
			</g>
			<g>
				<path d="M58.8,56.8c-0.3,0-0.6,0-0.9-0.1c-1.6-0.5-2.8-1.5-3.7-3.1c-1.5-2.8-1.4-6.6-0.6-9
					c0.5-1.5,2.3-3.8,4.2-4.1c0.7-0.1,1.7,0,2.6,1.2c1,1.4,0.6,3.2,0.3,4.6c0,0.2-0.1,0.4-0.1,0.6c-0.1,0.3-0.4,0.6-0.7,0.5
					c-0.3-0.1-0.6-0.4-0.5-0.7c0-0.2,0.1-0.4,0.1-0.6c0.3-1.3,0.6-2.7-0.1-3.6c-0.4-0.5-0.8-0.8-1.3-0.7c-1.3,0.2-2.8,2-3.2,3.2
					c-0.7,2.1-0.8,5.5,0.5,8c0.7,1.3,1.7,2.1,2.9,2.5c0.5,0.1,0.9,0.1,1.3-0.1c0.4-0.3,0.7-0.8,0.8-1.4c0-0.3,0.4-0.6,0.7-0.6
					c0.3,0,0.6,0.4,0.6,0.7c-0.1,1-0.6,1.9-1.3,2.3C59.9,56.6,59.5,56.8,58.8,56.8z" class="st34"></path>
			</g>
			<g>
				<path d="M54,46.3c-0.1,0-0.2,0-0.2,0c-0.3-0.1-7.8-3.2-8.2-14.8c0-0.3,0.3-0.6,0.6-0.7c0.4,0,0.6,0.3,0.7,0.6
					C47.3,42.2,54,45,54.2,45.1c0.3,0.1,0.5,0.5,0.4,0.8C54.5,46.2,54.3,46.3,54,46.3z" class="st34"></path>
			</g>
			<g>
				<path d="M46.3,33.6c-0.1,0-0.3,0-0.4-0.1c-0.1-0.1-10-7.3-17.8-9.6c-0.3-0.1-0.5-0.4-0.4-0.8
					c0.1-0.3,0.4-0.5,0.8-0.4c8.1,2.3,17.8,9.5,18.2,9.8c0.3,0.2,0.3,0.6,0.1,0.9C46.7,33.5,46.5,33.6,46.3,33.6z" class="st34"></path>
			</g>
			<g>
				<path d="M90.3,57c-0.1,0-0.1,0-0.2,0c-0.3-0.1-0.5-0.4-0.4-0.8c0,0,0.6-2.4,0.5-4.4c-0.1-2.1-2.2-14.9-3.2-17.2
					c-1-2.1-9.8-9.5-18.3-13.7C60.3,16.8,50.2,7.8,50.1,7.7c-0.3-0.2-0.3-0.6,0-0.9c0.2-0.3,0.6-0.3,0.9,0c0.1,0.1,10.1,9,18.4,13
					C77.9,24,87,31.5,88.2,34.1c1.2,2.6,3.2,15.6,3.3,17.7c0.1,2.2-0.6,4.7-0.6,4.8C90.9,56.8,90.6,57,90.3,57z" class="st34"></path>
			</g>
			<g>
				<path d="M88.5,59.7c-0.3,0-0.6-0.3-0.6-0.6c0-0.2,0.1-0.3,0.2-0.5c0.2-0.2,0.6-0.2,0.9,0c0.2,0.2,0.2,0.5,0.1,0.7
					C89,59.6,88.8,59.7,88.5,59.7z" class="st34"></path>
			</g>
			<g>
				<path d="M79.8,69.2C79.8,69.2,79.7,69.2,79.8,69.2c-0.9,0-1.9-0.7-2.7-1.6c-0.9-1-1.2-2.3-1.1-3.5
					c0.5-3.7,4.1-7.1,4.8-7.8l0.1-0.1c0.3-0.2,0.7-0.2,0.9,0c0.2,0.3,0.2,0.7,0,0.9l-0.1,0.1c-0.6,0.6-3.9,3.7-4.3,7
					c-0.2,1.1,0.3,2,0.8,2.5c0.6,0.7,1.3,1,1.6,1.1c0.3-0.1,1.5-1.1,6.4-6.9c0.2-0.3,0.6-0.3,0.9-0.1c0.3,0.2,0.3,0.6,0.1,0.9
					C81.2,68.9,80.2,69.2,79.8,69.2z" class="st34"></path>
			</g>
		</g>
		<g>
			<g>
				<path d="M82.6,100.3c-0.2,0-0.5-0.1-0.6-0.3c-0.2-0.3,0-0.7,0.3-0.8c3-1.5,5.7-4,7.6-7.1c0.7-1.1,1.3-2.2,1.8-3.4
					c3.7-8.9,1.6-19.2-5.5-26.8c-1-1.1-2.2-2.2-3.4-3.1c-0.3-0.2-0.6-0.5-0.9-0.7c-0.3-0.2-0.6-0.4-0.9-0.6
					c-1.4-0.9-2.9-1.8-4.5-2.4c-0.3-0.1-0.5-0.5-0.3-0.8c0.1-0.3,0.5-0.5,0.8-0.3c1.6,0.7,3.2,1.5,4.7,2.5c0.3,0.2,0.7,0.4,1,0.7
					c0.3,0.2,0.6,0.5,1,0.7c1.3,1,2.5,2.1,3.5,3.3c7.4,8,9.6,18.8,5.8,28.1c-0.5,1.2-1.1,2.4-1.9,3.6c-2.1,3.3-4.9,5.9-8.1,7.5
					C82.8,100.3,82.7,100.3,82.6,100.3z" class="st34"></path>
			</g>
			<g>
				<path d="M40.4,73.6c-0.2,0-0.3-0.1-0.5-0.2c-0.2-0.2-0.2-0.4-0.1-0.6c0.6-3.1,1.7-6,3.4-8.7
					c2.8-4.5,7.2-8.1,12.3-10.3c0.3-0.1,0.7,0,0.8,0.3c0.1,0.3,0,0.7-0.3,0.8c-4.8,2.1-9,5.5-11.7,9.8c-1.6,2.6-2.7,5.3-3.3,8.3
					c0,0.1-0.1,0.3-0.2,0.4C40.7,73.6,40.5,73.6,40.4,73.6z" class="st34"></path>
			</g>
			<g>
				<path d="M43.7,65.1c-0.2,0-0.3-0.1-0.5-0.2L42.4,64c-2-2.1-2.2-5.3-0.4-7.7c1.9-2.5,5.5-5.9,11.6-8.1
					c0.3-0.1,0.7,0.1,0.8,0.4c0.1,0.3-0.1,0.7-0.4,0.8c-5.8,2-9.2,5.3-11,7.7c-1.4,1.8-1.3,4.4,0.3,6l0.9,0.9c0.2,0.2,0.2,0.6,0,0.9
					C44,65.1,43.9,65.1,43.7,65.1z" class="st34"></path>
			</g>
			<g>
				<path d="M93.5,93.7c-0.6,0-1.1-0.1-1.7-0.3L90.2,93c-0.3-0.1-0.5-0.5-0.4-0.8c0.1-0.3,0.5-0.5,0.8-0.4l1.5,0.5
					c2.1,0.6,4.4-0.3,5.4-2.3c1.9-3.6,2.4-8.6,1.5-15.3c-1-7.6-3.9-13.4-9.3-18.1c-0.3-0.2-0.3-0.6-0.1-0.9c0.2-0.3,0.6-0.3,0.9-0.1
					c5.6,4.9,8.8,11,9.8,18.9c0.9,6.9,0.4,12.2-1.6,16C97.6,92.5,95.6,93.7,93.5,93.7z" class="st34"></path>
			</g>
			<g>
				<path d="M75.4,48.8c-0.1,0-0.1,0-0.2,0c-0.9-0.3-1.9-0.5-2.8-0.7c-0.3-0.1-0.6-0.4-0.5-0.7
					c0.1-0.3,0.4-0.6,0.7-0.5c1,0.2,2,0.4,2.9,0.7c0.3,0.1,0.5,0.4,0.4,0.8C76,48.7,75.7,48.8,75.4,48.8z" class="st34"></path>
			</g>
			<g>
				<path d="M83.2,103.1c-0.2,0-0.5-0.1-0.6-0.4c-0.1-0.3,0-0.7,0.3-0.8c7.1-3.2,10-8.9,10.1-9.1l0.6,0.3l0.5,0.3
					c-0.1,0.2-3.2,6.3-10.7,9.7C83.4,103.1,83.3,103.1,83.2,103.1z" class="st34"></path>
			</g>
			<g>
				<path d="M36.9,74.5c0,0-0.1,0-0.1,0c-0.3-0.1-0.6-0.4-0.5-0.7c1-5.9,4-10.9,4.8-12.3c0.2-0.3,0.6-0.4,0.9-0.2
					c0.3,0.2,0.4,0.6,0.2,0.9c-0.8,1.4-3.7,6.2-4.7,11.9C37.5,74.3,37.2,74.5,36.9,74.5z" class="st34"></path>
			</g>
			<g>
				<path d="M82.4,100.2c-0.8,0-2.5-0.6-6.9-3.1c-4.1-2.3-9.4-5.5-14.9-9.1c-5.5-3.6-10.6-7.1-14.3-9.9
					c-6.2-4.7-5.9-5.3-5.5-5.8c0-0.1,0.1-0.1,0.2-0.2c0.4-0.3,9.3-6.3,23.7,1.4c0.3,0.2,0.4,0.5,0.3,0.9c-0.2,0.3-0.5,0.4-0.9,0.3
					c-12-6.4-20.1-2.8-21.9-1.8c1.2,1.5,8,6.8,19.2,14.1C72.5,94.3,80.2,98.4,82,98.9c0.3-2,0.9-10.8-12-20.3
					c-0.3-0.2-0.3-0.6-0.1-0.9c0.2-0.3,0.6-0.3,0.9-0.1c15.4,11.3,12.5,21.7,12.4,22.1c0,0.1,0,0.1-0.1,0.2
					C82.9,100,82.8,100.2,82.4,100.2z M82.5,99.5L82.5,99.5L82.5,99.5z" class="st34"></path>
			</g>
			<g>
				<path d="M81.3,102.7c-1.8,0-12.1-5.7-22.2-12.2c-11.2-7.3-19.4-14-19.9-15.1c-0.4-0.9-0.3-1.6-0.1-2
					c0.5-1,1.8-1.3,1.9-1.3c0.3-0.1,0.7,0.2,0.7,0.5c0.1,0.3-0.2,0.7-0.5,0.7c-0.2,0-0.8,0.3-1,0.6c0,0.1-0.2,0.3,0.1,0.9
					c0.5,0.8,8,7.1,19.4,14.6c11.2,7.3,20.2,11.9,21.4,12c0.6-0.1,0.9-0.3,1-0.6c0.1-0.3-0.1-0.8-0.3-1c-0.2-0.3-0.2-0.7,0.1-0.9
					s0.7-0.2,0.9,0.1c0.1,0.1,0.9,1.2,0.5,2.2c-0.3,0.7-0.9,1.2-2,1.4C81.4,102.7,81.4,102.7,81.3,102.7z" class="st34"></path>
			</g>
			<g>
				<path d="M68.9,79.2c-0.9,0-1.9-0.3-3-0.9c-2.1-1.2-3.1-3.1-2.4-4.4c0.1-0.2,0.3-0.4,0.5-0.5
					c0.3-0.2,0.7-0.1,0.9,0.2c0.2,0.3,0.1,0.7-0.2,0.9c-0.1,0-0.1,0.1-0.1,0.1c-0.3,0.5,0.3,1.7,1.9,2.6c1.6,0.9,3,0.9,3.3,0.4
					c0.1-0.3,0.5-0.5,0.8-0.4c0.3,0.1,0.5,0.5,0.4,0.8c0,0.1-0.1,0.2-0.1,0.3C70.6,78.9,69.8,79.2,68.9,79.2z" class="st34"></path>
			</g>
			<g>
				<path d="M71.7,78.6c-1.4,0-3-0.5-4.6-1.4c-1.4-0.8-2.6-2-3.3-3.1c-0.8-1.3-0.9-2.5-0.4-3.4
					c0.5-0.9,1.7-1.4,3.2-1.4c1.4,0.1,2.9,0.6,4.3,1.4c1.4,0.8,2.6,2,3.3,3.1c0.8,1.3,0.9,2.5,0.4,3.4C74.1,78.1,73,78.6,71.7,78.6z
					 M66.3,70.5c-0.9,0-1.6,0.3-1.8,0.7c-0.3,0.5-0.2,1.3,0.4,2.1c0.6,1,1.6,1.9,2.9,2.7c2.7,1.6,5.2,1.5,5.8,0.5l0,0
					c0.3-0.5,0.2-1.3-0.4-2.1c-0.6-1-1.6-1.9-2.9-2.7c-1.3-0.7-2.6-1.2-3.8-1.2C66.5,70.5,66.4,70.5,66.3,70.5z" class="st34"></path>
			</g>
			<g>
				<path d="M71.3,142.3c-0.4,0-0.8-0.1-1.2-0.2c-7-2.4-32.1-12-62.1-36.7c-1.4-1.2-1.7-3.2-0.7-4.7
					c7.3-11.2,15-19.4,22.9-24.2c5.9-3.6,9.8-4,10.2-4.1c0.1,0,0.2,0,0.4,0.1c0.3,0.2,0.4,0.6,0.2,0.9c-0.1,0.2-0.3,0.3-0.5,0.3
					c0,0,0,0,0,0c-1.1,0.1-15.3,2-32.1,27.7c-0.7,1-0.4,2.3,0.5,3.1c29.9,24.5,54.8,34.1,61.7,36.4c1.1,0.4,2.2-0.1,2.8-1.1
					c1-1.7,1.9-3.5,2.7-5.2c0.1-0.3,0.5-0.4,0.8-0.3c0.3,0.1,0.4,0.5,0.3,0.8c-0.8,1.7-1.7,3.5-2.7,5.2
					C73.8,141.6,72.5,142.3,71.3,142.3z" class="st34"></path>
			</g>
			<g>
				<path d="M82.5,118.4c-0.1,0-0.2,0-0.3-0.1l0,0c-0.2-0.1-0.3-0.4-0.3-0.7c1.5-7.4,1.1-12.6,0.8-15.1
					c-0.1-0.9-0.3-1.5-0.3-1.5c-0.1-0.3,0.1-0.7,0.4-0.8c0.3-0.1,0.7,0.1,0.8,0.4c0,0.2,0.2,0.7,0.3,1.7c0.4,2.5,0.8,7.9-0.8,15.5
					c0,0.1,0,0.2-0.1,0.3C82.9,118.3,82.7,118.4,82.5,118.4z" class="st34"></path>
			</g>
		</g>
		<g>
			<path d="M80.7,136.2c-1.4,0-2.8-0.2-4.3-0.6c-0.2-0.1-0.4-0.2-0.4-0.5c0-0.1-2.2-11,6.1-17.8
				c0.2-0.2,0.5-0.2,0.7-0.1c0,0,3.8,1.5,12.3-6.8c4.5-4.4,9.3-5.1,12.5-5c3.8,0.2,7.3,1.7,9.2,3.9c0.2,0.3,0.2,0.7-0.1,0.9
				c-0.3,0.2-0.7,0.2-0.9-0.1c-1.7-2-4.9-3.3-8.3-3.5c-3-0.1-7.4,0.6-11.5,4.6c-7.7,7.6-12,7.4-13.3,7.1c-6.7,5.6-5.8,14.1-5.5,16
				c10.8,2.8,18.3-8,22.3-13.8c0.8-1.1,1.4-2.1,2-2.7c4.4-5.4,9.5-3.9,9.7-3.8c0.3,0.1,0.5,0.5,0.4,0.8c-0.1,0.3-0.5,0.5-0.8,0.4
				c-0.2-0.1-4.5-1.3-8.3,3.4c-0.5,0.7-1.2,1.6-1.9,2.7C96.7,126.8,90.2,136.2,80.7,136.2z" class="st34"></path>
		</g>
		<g>
			<path d="M111.1,115.4c-0.2,0-0.4-0.1-0.6-0.2c-0.6-0.7,0.1-2,2.2-3.9c0.7-0.7,1.5-1.3,2.1-1.7
				c0.4-0.3,1.4-0.9,1.9-0.3c0.6,0.7-0.1,2-2.2,3.9C112.9,114.7,111.8,115.4,111.1,115.4z M114.8,111.1c-0.4,0.3-0.8,0.6-1.3,1.1
				c-0.5,0.4-0.9,0.8-1.2,1.2c0.4-0.3,0.8-0.6,1.3-1.1C114.1,111.9,114.5,111.4,114.8,111.1z" class="st34"></path>
		</g>
	</g>
	<g class="st6">
		<path d="M48.3,127.9c-25-12.6-37.6-25.4-37.6-25.4s6.4-13,15.9-19.6C26.5,82.9,18.1,106.6,48.3,127.9z" class="st34"></path>
	</g>
	<g class="st6">
		<path d="M71.4,81.5c0,0,7.4,6.4,8.2,14.1c0,0-4.8-2.6-7.2-4.2C72.4,91.4,76.3,90.4,71.4,81.5z" class="st34"></path>
	</g>
	<g class="st6">
		<path d="M95.1,124.8c-7.6,9.5-16.5,8.7-16.5,8.7c-0.6-2.7,0-5.3,0-5.3s2.7,2.9,8.4,0.7
			C92.7,126.6,95.1,124.8,95.1,124.8z" class="st34"></path>
	</g>
	<g class="st6">
		<path d="M80.9,104.2c-8.9-1.4-25.2-13.4-25.2-13.4s9.7,13.8,25.2,17.2C80.9,107.9,81.2,105.4,80.9,104.2" class="st34"></path>
	</g>
	<g class="st2">
		<path d="M122.4,134.1c-0.3,0-0.6-0.2-0.6-0.6c-0.8-9.4-8-16.7-8-16.8c-0.2-0.2-0.2-0.6,0-0.9c0.2-0.2,0.6-0.2,0.9,0
			c0.3,0.3,7.6,7.7,8.4,17.6C123.1,133.8,122.8,134.1,122.4,134.1C122.5,134.1,122.4,134.1,122.4,134.1z" class="st34"></path>
	</g>
	<g class="st2">
		<path d="M127.3,126.9c-0.3,0-0.5-0.2-0.6-0.4c-2.9-7.9-9.4-12.3-9.5-12.3c-0.3-0.2-0.4-0.6-0.2-0.9
			c0.2-0.3,0.6-0.4,0.9-0.2c0.3,0.2,6.9,4.7,10,12.9c0.1,0.3,0,0.7-0.4,0.8C127.4,126.9,127.4,126.9,127.3,126.9z" class="st34"></path>
	</g>
</g>
<g class="st1">
	<g>
		<linearGradient y2="154.953" x2="97.0647" y1="154.953" x1="61.4357" gradientUnits="userSpaceOnUse" id="SVGID_21_">
			<stop style="stop-color:#EFE3D6" offset="0.2981"></stop>
			<stop style="stop-color:#EEE0D3" offset="0.7348"></stop>
			<stop style="stop-color:#EBD9CD" offset="1"></stop>
		</linearGradient>
		<path d="M97.1,154.8c-2,0.6-4.1,1.2-6.2,2c-16,5.5-26.9-1.9-29.5-3.9c3.6-1.2,8.9-3.5,17.6,0.4
			C85.7,156.3,90.4,156,97.1,154.8z" class="st40"></path>
	</g>
	<g>
		<linearGradient y2="158.3807" x2="121.4735" y1="158.3807" x1="61.2266" gradientUnits="userSpaceOnUse" id="SVGID_22_">
			<stop style="stop-color:#F8F1EA" offset="0.2981"></stop>
			<stop style="stop-color:#F7EEE7" offset="0.7026"></stop>
			<stop style="stop-color:#F4E7DE" offset="1"></stop>
		</linearGradient>
		<path d="M121.5,150.3c-5.2,10.1-15.1,16.7-31.1,16.7c-13.8,0-23.4-5.5-29.2-14c0,0,0.1,0,0.1,0c0,0,0.1,0,0.1,0
			c2.5,2,13.4,9.5,29.5,3.9c2.1-0.7,4.2-1.3,6.2-2C114.6,148.9,117.6,149.5,121.5,150.3z" class="st41"></path>
	</g>
	<g class="st2">
		<path d="M90.4,169.6c-24,0-38.9-15.2-39.9-40.5c0-0.9,0.3-1.7,0.9-2.4c0.6-0.6,1.4-1,2.3-1h73.4c0.9,0,1.7,0.4,2.3,1
			c0.6,0.6,0.9,1.5,0.9,2.4c-0.4,11.9-3.8,21.8-9.8,28.7C113.6,165.6,103.5,169.6,90.4,169.6z M53.7,127.1c-0.5,0-1,0.2-1.3,0.6
			c-0.3,0.4-0.5,0.8-0.5,1.3c1,24.5,15.4,39.2,38.5,39.2c32.3,0,38-24.5,38.5-39.2c0-0.5-0.2-1-0.5-1.3c-0.3-0.4-0.8-0.6-1.3-0.6
			H53.7z" class="st34"></path>
	</g>
	<g class="st2">
		<g>
			<path d="M122.9,154c-0.4,0-0.7-0.3-0.7-0.7c0-0.4,0.3-0.7,0.7-0.8c8.9-0.8,15.8-5.9,16.2-12.2
				c0.2-2.7-0.4-4.9-1.6-6.3c-1.4-1.5-3.4-1.8-4.8-1.8c-1,0-2,0.2-2.9,0.6c-0.4,0.2-0.8,0-0.9-0.4c-0.2-0.4,0-0.8,0.4-0.9
				c1.1-0.5,2.3-0.7,3.5-0.7c1.7,0,4.1,0.4,5.8,2.2c1.5,1.7,2.2,4.2,2,7.3C140,147.5,132.6,153.2,122.9,154
				C122.9,154,122.9,154,122.9,154z" class="st34"></path>
		</g>
		<g>
			<path d="M120.6,159.4c-0.7,0-1.4,0-2-0.1c-0.4,0-0.7-0.4-0.7-0.8c0-0.4,0.4-0.7,0.8-0.7c0.6,0,1.2,0.1,1.9,0.1
				c12.6,0,23-7.5,23.6-17.2c0.4-5.4-1.4-8.5-3-10.2c-2.1-2.2-5.1-3.5-8.6-3.5c-1.3,0-2.5,0.2-3.7,0.6c-0.4,0.1-0.8-0.1-0.9-0.5
				c-0.1-0.4,0.1-0.8,0.5-0.9c1.3-0.4,2.7-0.6,4.1-0.6c3.9,0,7.3,1.4,9.7,3.9c1.8,1.9,3.8,5.4,3.4,11.3
				C144.9,151.4,134.2,159.4,120.6,159.4z" class="st34"></path>
		</g>
	</g>
	<g class="st7">
		<g>
			<path d="M131.9,127.9c0,0,7.9-0.2,10.5,6.6C142.4,134.4,139.7,129.4,131.9,127.9z" class="st34"></path>
		</g>
		<g>
			<path d="M141.3,145.2c0,0-2.7,7.7-13.5,10.1C127.8,155.3,137.1,151.7,141.3,145.2z" class="st34"></path>
		</g>
	</g>
	<g class="st2">
		<ellipse ry="3.6" rx="24" cy="182.1" cx="90.4" class="st34"></ellipse>
	</g>
	<g class="st2">
		<g>
			<g>
				<path d="M77.7,78.3c-0.4,0-0.8-0.1-1.2-0.3c-2.1-1-3.4-4.3-4.9-8.5c-0.5-1.3-1-2.6-1.5-3.9
					c-2.2-5.2-4.1-8.6-4.9-9.8c-0.1-0.2-0.3-0.4-0.4-0.5C58,49.2,54.7,43.2,52.9,40c-0.5-0.8-0.8-1.4-1-1.8c-0.2-0.3-1.9-1.8-12.1-9
					c-0.3-0.2-0.4-0.7-0.2-1c0.2-0.3,0.7-0.4,1-0.2c11.5,8.1,12.2,9,12.5,9.3c0.3,0.4,0.7,1,1.2,1.9c1.8,3.1,5,8.9,11.6,14.9
					c0.3,0.2,0.5,0.5,0.7,0.8c0.8,1.2,2.8,4.7,5,10c0.5,1.3,1,2.7,1.5,3.9c1.3,3.6,2.6,7,4.2,7.7c0.4,0.2,0.8,0.2,1.3,0
					c0.6-0.2,1-0.8,1.4-1.6c1-2.2,1.1-6.5-0.7-11.2c-1.1-2.9-2.1-5.7-3-8.3c-0.1-0.4,0.1-0.8,0.5-0.9c0.4-0.1,0.8,0.1,0.9,0.5
					c0.8,2.6,1.8,5.4,2.9,8.2c1.7,4.5,2,9.3,0.7,12.3c-0.5,1.2-1.3,2-2.2,2.4C78.5,78.2,78.1,78.3,77.7,78.3z" class="st34"></path>
			</g>
			<g>
				<path d="M72.5,56.8c-1.3,0-2.6-0.2-3.8-0.8c-0.4-0.2-0.5-0.6-0.3-1c0.2-0.4,0.6-0.5,1-0.3c2.2,1,5.4,0.8,8.5-0.5
					c1.5-0.6,2.8-1.1,4-1.5c0.4-0.1,0.8,0.1,0.9,0.5c0.1,0.4-0.1,0.8-0.5,0.9c-1.1,0.3-2.4,0.8-3.8,1.4C77.3,56,75,56.8,72.5,56.8z" class="st34"></path>
			</g>
			<g>
				<path d="M97.6,81c-0.6,0-1.2-0.3-1.5-0.8c-3.1-4.6-2.2-10.9-2-12.2c-1.4-3.6-2.1-7.4-2.3-8.7
					c-6.6-2.4-13.8-7.6-14.9-8.4c-4.7-0.8-8.7-2.3-12.4-4.6l-1.7-1.1c-2.1-1.4-3.2-2.5-3.2-2.5c-0.3-0.3-0.3-0.7,0-1
					c0.3-0.3,0.7-0.3,1,0c0,0,1,1,3,2.4l1.7,1.1c3.6,2.2,7.5,3.7,12.1,4.4c0.1,0,0.2,0.1,0.3,0.1c0.1,0.1,8.2,6,15.1,8.5
					c0.3,0.1,0.4,0.3,0.5,0.6c0,0,0.7,4.9,2.3,9c0.1,0.1,0.1,0.3,0,0.4c0,0.1-1.3,6.8,1.7,11.3c0.1,0.2,0.3,0.2,0.4,0.2
					c0.1,0,0.3-0.1,0.3-0.3c1.5-6.4,2.5-10.5,2.5-11.4c0.1-1.1-0.9-7.7-1.6-12l-8.4-10.4c-0.2-0.3-0.2-0.8,0.1-1
					c0.3-0.2,0.8-0.2,1,0.1l8.5,10.6c0.1,0.1,0.1,0.2,0.1,0.3c0.2,1.1,1.8,10.9,1.7,12.5c-0.1,1.2-1.4,6.9-2.6,11.6
					c-0.2,0.7-0.7,1.2-1.5,1.4C97.9,81,97.8,81,97.6,81z" class="st34"></path>
			</g>
			<g>
				<path d="M97.8,88.9c-0.1,0-0.2,0-0.3-0.1c-4.9-2.7-3.8-8.7-2.5-11.5c0.2-0.4,0.6-0.5,1-0.4c0.4,0.2,0.5,0.6,0.4,1
					c-0.1,0.3-2.8,6.4,1.3,9.3c1-1.8,3.8-6.8,4.3-8c0.2-0.4,0.6-2.5,1.3-7.4c0.3-2.1,0.7-4.4,0.9-6.4c0.5-3.4,0.6-4.8,0.6-5.2
					c-0.1-0.1-0.1-0.3-0.2-0.6c-0.5-1.2-1.6-4.2-3.5-8c-0.2-0.4,0-0.8,0.3-1c0.4-0.2,0.8,0,1,0.3c2,3.9,3.1,6.9,3.6,8.1
					c0.1,0.3,0.2,0.5,0.2,0.6c0.1,0.2,0.2,0.4-0.5,5.8c-0.3,2-0.6,4.3-0.9,6.5c-0.7,4.5-1.2,7.1-1.4,7.7c-0.7,1.5-4.5,8.5-4.7,8.8
					c-0.1,0.2-0.2,0.3-0.4,0.3C97.9,88.9,97.9,88.9,97.8,88.9z" class="st34"></path>
			</g>
			<g>
				<path d="M110.1,87.9c-1.4,0-2.7-0.5-3.7-1.4c-3.5-3.1-3.8-10.4-3.9-10.7c0-0.4,0.3-0.7,0.7-0.7
					c0.4,0,0.7,0.3,0.7,0.7c0,0.1,0.3,6.9,3.4,9.7c0.7,0.6,1.5,1,2.5,1.1c0-2.2-0.2-8.5-0.2-9.4c0-0.8-2.3-10.7-3.7-16.8
					c-4.5-7.9-11.5-20-12.4-20.9c-0.5-0.6-6.2-3.7-10.7-6.2c-5.8-3.2-11.9-6.6-13.1-7.6l-0.3-0.3c-0.5-0.4-0.6-0.5-3.7-3.5
					c-0.3-0.3-0.3-0.7,0-1c0.3-0.3,0.7-0.3,1,0c3,3,3.2,3.1,3.6,3.4l0.3,0.3c1.2,1,7.4,4.4,12.9,7.5c6.4,3.6,10.4,5.8,11.1,6.4
					c1.3,1.3,11.5,19.2,12.7,21.3c0,0.1,0.1,0.1,0.1,0.2c0.6,2.7,3.8,16.1,3.8,17.2c0,1.1,0.2,10,0.2,10.1c0,0.4-0.3,0.7-0.7,0.7
					C110.4,87.9,110.3,87.9,110.1,87.9z" class="st34"></path>
			</g>
			<g>
				<g>
					<path d="M113.2,77.9c-2.1,0-3.4-1.6-3.8-2.6c-0.2-0.4,0-0.8,0.4-0.9c0.4-0.2,0.8,0,0.9,0.4
						c0.1,0.3,1.1,2.3,3.5,1.6c-0.7-3.9-1.6-8.1-1.8-8.6c-0.2-0.5-2.8-6.9-4.2-10.7c-0.1-0.2-0.2-0.5-0.4-0.6
						c-1.8-1.8-7.9-8-10.1-10.5c-0.3-0.3-0.2-0.7,0-1c0.3-0.3,0.7-0.2,1,0c2.3,2.5,8.8,9.1,10.1,10.4c0.3,0.3,0.6,0.7,0.7,1.1
						c2.4,6.1,4,10.3,4.2,10.6c0.3,0.6,1.5,6.9,2,9.6c0.1,0.3-0.1,0.7-0.4,0.8C114.5,77.8,113.8,77.9,113.2,77.9z" class="st34"></path>
				</g>
			</g>
		</g>
		<g>
			<path d="M57.7,118.3c-1.5,0-2.8,1.2-2.8,2.8c0-1.5-1.2-2.8-2.8-2.8c1.5,0,2.8-1.2,2.8-2.8
				C54.9,117.1,56.2,118.3,57.7,118.3z" class="st34"></path>
		</g>
		<g>
			<path d="M120.6,105.9c-0.9,0-1.7,0.7-1.7,1.7c0-0.9-0.7-1.7-1.7-1.7c0.9,0,1.7-0.7,1.7-1.7
				C119,105.2,119.7,105.9,120.6,105.9z" class="st34"></path>
		</g>
		<g>
			<path d="M84.4,86c-0.9,0-1.7,0.7-1.7,1.7c0-0.9-0.7-1.7-1.7-1.7c0.9,0,1.7-0.7,1.7-1.7C82.7,85.2,83.5,86,84.4,86z" class="st34"></path>
		</g>
		<g>
			<g>
				<path d="M68.3,84h-1.7c-0.1,0-0.2-0.1-0.2-0.2c0-0.1,0.1-0.2,0.2-0.2h1.7c0.1,0,0.2,0.1,0.2,0.2
					C68.6,83.9,68.5,84,68.3,84z" class="st34"></path>
			</g>
			<g>
				<path d="M65.6,84H64c-0.1,0-0.2-0.1-0.2-0.2c0-0.1,0.1-0.2,0.2-0.2h1.7c0.1,0,0.2,0.1,0.2,0.2
					C65.9,83.9,65.8,84,65.6,84z" class="st34"></path>
			</g>
			<g>
				<path d="M66.2,83.5c-0.1,0-0.2-0.1-0.2-0.2v-1.7c0-0.1,0.1-0.2,0.2-0.2c0.1,0,0.2,0.1,0.2,0.2v1.7
					C66.4,83.4,66.3,83.5,66.2,83.5z" class="st34"></path>
			</g>
			<g>
				<path d="M66.2,86.2c-0.1,0-0.2-0.1-0.2-0.2v-1.7c0-0.1,0.1-0.2,0.2-0.2c0.1,0,0.2,0.1,0.2,0.2V86
					C66.4,86.1,66.3,86.2,66.2,86.2z" class="st34"></path>
			</g>
		</g>
		<g>
			<path d="M73.5,96.3c0,0,1.4-0.3,3.2-1.9c1.8-1.6,4.2-0.3,5.4,1.3c1.2,1.6-0.7-1.5-0.7-1.5s-2.4-2.7-4.2-1.6
				C75.4,93.7,73.5,96.3,73.5,96.3z" class="st42"></path>
			<path d="M95.1,104.9c0.2,2.8-2,5.2-2,5.2s-0.1,0.4-1.6,2.5c-1.4,2.1-2.4,0.9-2.3,0.8c2.4-0.6,2.9-3.6,2.9-3.6
				s2.2-2.6,1.7-4.9c-0.4-1.7-3.3-3.7-4.6-4.7L89.1,99C89.1,99,94.9,102.1,95.1,104.9z" class="st42"></path>
			<path d="M70.4,93c0,0,1.7-1.6,3.3-0.7c1.6,0.9-0.3,3.6-0.3,3.6s1.9-2.4,3.7-3.1c1.8-0.8,3.3,0.4,3.3,0.4
				s0.5,0,0.6,0s0.4-0.2,0.3-0.3S81.2,92.2,81,92s-1.1-0.6-1.1-0.7c0,0-0.4-1-1.4-1.3c-1-0.3-2.3-0.5-2.4-0.4c-0.2,0-1-0.3-1.9,0.4
				c0,0-0.8-0.4-1.2-0.1c-0.3,0.3-0.6,0.9-0.6,0.9s-0.8-0.3-0.9-0.1c-0.2,0.2-0.6,0.6-0.7,0.8s-0.5,1-0.5,1" class="st42"></path>
			<path d="M95,106.8c0,0,0.7,0.1,0.8,0.2c0.5,0.2,1,0.5,1.5,0.8c1,0.9,1.5,2.2,1.1,3.5c-0.3,1.2-1,2.2-1.9,3
				c-0.4,0.4-0.9,0.7-1.5,1c-0.4,0.2-1,0.6-1.4,0.4c-0.2-0.1-0.3-0.2-0.4-0.3c0.2,0.3,0.2,0.5,0.4,0.8c0.2,0.3,0.4,0.5,0.7,0.7
				c0.9,0.4,3.1,0.2,5.4-3.4c2.3-3.7,0.9-6.2-0.4-6.9c-1.3-0.7-1.4-0.7-1.4-0.7l-2.8-0.5C95,105.1,95,106.8,95,106.8z" class="st42"></path>
			<path d="M84.2,120.4c0,0,2.3,1.2,4.6-0.2c2.2-1.5,1.9-1.8,1.9-1.8s0.3,0.8,0.7,0.7c0.4-0.1,0.5,0,0.5,0l0.3,0.3
				l-0.1,0.1c0,0-3.1,2.8-4.2,2.8c-1.1,0-1.2,0-1.2,0s-1.4-0.4-1.9-0.9s-0.5-0.6-0.5-0.6" class="st42"></path>
			<path d="M79.4,111.2c0,0,2.9,3.5,5.3,3.3c2.4-0.2,5.3-3.3,4.8-3.6c-0.5-0.4,1.2,0.2,0.3,1.2c-0.9,1-3.2,2.8-3.2,2.8
				s-1.5,1.4-4-0.2c-2.5-1.6-4-4.3-4-4.3" class="st42"></path>
			<g>
				<path d="M75.1,101.9c-0.5-0.5-0.5-1.3,0.1-1.8c0.5-0.5,1.3-0.5,1.8,0.1" class="st43"></path>
				<path d="M79.4,97.8C79,97.3,79,96.5,79.5,96c0.5-0.5,1.3-0.5,1.8,0.1" class="st43"></path>
				<path d="M79.4,102.9c0,0,2.2-0.4,2.8-2.6" class="st43"></path>
				<path d="M84.5,101.1c0,0,0,0.2,0,0.2c0,0.2,0,0.3,0,0.5c0,0.5-0.1,1-0.4,1.5c-0.7,1.2-2,2.2-3.4,2.2
					c-0.2,0-0.4,0-0.6,0c0,0-0.2-0.1-0.2,0c-1.6,1.6-3.2,0.7-4-0.6c-0.8-1.3-1.5-2-1.5-2s-2.9-1.7-2.9-3.9c0-2,1.8-2.7,2.8-3.5
					c0.1-0.1,0.3-0.3,0.4-0.4c0.9-0.9,1.7-2.6,3.7-2.5c2.2,0.1,3.8,3.1,3.8,3.1s0.6,0.7,1.9,1.6C85.4,97.9,86.2,99.6,84.5,101.1z" class="st43"></path>
				<path d="M78.8,106.2c0,0-1.3,1.9-0.2,4.1s4.9,7.9,8.9,3.8c0,0,3.1-1.8,2.4-3c-0.6-1-2.2,0.1-2.2,0.1" class="st43"></path>
				<path d="M86.8,113.2c0,0,1.6-1,1.3-1.7c-0.5-0.9-2.2,0.2-2.2,0.2c0,0-1.7-0.8-2.6-0.5c0,0-0.3-0.6-1.8-2.6" class="st43"></path>
				<path d="M84.4,97.2c0.5-0.4,0.6-0.7,0.3-1.2c-0.3-0.5-1.2-0.8-1.5-1.5c-0.6-1.6-1.8-2.3-2.4-1" class="st43"></path>
				<path d="M76,105.1c-0.4,0.4-0.8,0.5-1.2,0.2c-0.5-0.3-0.7-1.2-1.4-1.6c-1.6-0.7-2.2-2-0.8-2.5" class="st43"></path>
				<path d="M71.8,101.8c-0.2,0-0.5-0.2-0.7-0.4c-0.3-0.3-0.4-0.7-0.3-1.1c-0.4,0.1-0.8,0-1.1-0.4
					c-0.4-0.4-0.4-0.9-0.2-1.4c-0.2-0.1-0.3-0.2-0.4-0.3c-0.4-0.5-0.4-1.2,0-1.6c0,0,0,0-0.1-0.1c-0.5-0.5-0.4-1.2,0-1.7
					c0.1-0.1,0.3-0.2,0.4-0.3c-0.3-0.5-0.2-1.1,0.2-1.5c0.2-0.2,0.4-0.3,0.6-0.3c-0.2-0.5-0.2-1.1,0.2-1.4c0.1-0.1,0.2-0.2,0.3-0.2
					c0.1-0.1,0.1-0.2,0.2-0.3c0.4-0.4,1-0.4,1.4-0.2c0.1-0.2,0.2-0.4,0.3-0.6c0.4-0.4,1.1-0.4,1.5-0.1c0.1-0.1,0.2-0.3,0.3-0.4
					c0.5-0.5,1.2-0.4,1.7,0c0,0,0,0,0.1,0.1c0.5-0.4,1.2-0.3,1.6,0.1c0.1,0.1,0.2,0.3,0.3,0.4c0.5-0.2,1-0.1,1.4,0.3
					c0.3,0.3,0.4,0.7,0.3,1.1c0.4-0.1,0.8,0,1.1,0.4c0.2,0.2,0.3,0.5,0.3,0.8" class="st43"></path>
				<path d="M85.4,99.8c0,0,4.5,4.4,1.2,11.6" class="st43"></path>
				<path d="M85.4,98.8c0,0,1.5-0.9,3.6-0.1c0,0-0.6,1.2,2.1,6.4" class="st43"></path>
				<path d="M89,98.7c0,0,2.5,1.2,4.9,4c0.9,1.1,1.3,2.6,1,4c-0.3,1.2-0.9,2.7-2.1,3.8c0,0,0,1.6-1.8,2.9
					s-2.3,0-1.9-0.6" class="st43"></path>
				<path d="M91.4,110.7c-0.7,1.5-1.3,0.8-1.3,0.8s-0.6-0.7,0.6-2.2c0,0-1.4-1.1,0.8-5.1" class="st43"></path>
				<path d="M83.5,115.3c-0.8,2.4-0.2,5.7,2.3,6.7c2.5,1,5-1.3,6.5-3.1" class="st43"></path>
				<path d="M93,115.6c0,0-1.3,0.1-2.4,1.7c-0.6,0.9,1.1,3.6,4.2-0.2" class="st43"></path>
				<path d="M90.5,117.4c0,0,0.2,1,1,0.6" class="st43"></path>
				<path d="M95,105.3c2.2-0.2,4.7,0.7,5.5,2.9c1.4,4.1-3.5,8.2-5.1,8.7c-1.6,0.5-2.6-1.9-2.6-1.9s-0.8-1.9,2.1-5.3" class="st43"></path>
				<path d="M87.5,116.8c0,0,3.8-3.6,5.3-1.8" class="st43"></path>
			</g>
		</g>
	</g>
	<linearGradient y2="138.2614" x2="98.7186" y1="138.2614" x1="55.5898" gradientUnits="userSpaceOnUse" id="SVGID_23_">
		<stop style="stop-color:#EFE3D6" offset="0.2981"></stop>
		<stop style="stop-color:#EEE0D3" offset="0.7348"></stop>
		<stop style="stop-color:#EBD9CD" offset="1"></stop>
	</linearGradient>
	<path d="M98.7,138c-2.2,0.6-4.4,1.3-6.6,2.1c-0.3,0.1-0.7,0.2-1,0.3c-18.4,6.4-31.3-1.2-35.5-4.2
		c4.4-1.6,10.8-4.6,20.9-0.1C84.7,139.7,90.5,139.3,98.7,138z" class="st44"></path>
	<linearGradient y2="149.2427" x2="126.2877" y1="149.2427" x1="55.5898" gradientUnits="userSpaceOnUse" id="SVGID_24_">
		<stop style="stop-color:#F8F1EA" offset="0.2981"></stop>
		<stop style="stop-color:#F7EEE7" offset="0.7026"></stop>
		<stop style="stop-color:#F4E7DE" offset="1"></stop>
	</linearGradient>
	<path d="M126.3,131.9c-0.1,1.9-0.3,3.7-0.6,5.5c-0.7,4.6-2,9-4,12.8c-5.2,10-15.1,16.6-31,16.6
		c-13.8,0-23.3-5.4-29.1-14c-0.1-0.2-0.2-0.4-0.3-0.5c0,0,0,0,0,0c-2.8-4.3-4.6-9.3-5.5-14.9c-0.1-0.4-0.1-0.8-0.2-1.2
		c4.2,3.1,17.1,10.6,35.5,4.2c0.3-0.1,0.7-0.2,1-0.3c2.3-0.8,4.5-1.5,6.6-2.1C116.5,131.9,122.2,131.3,126.3,131.9z" class="st45"></path>
</g>
<g>
	<linearGradient y2="138.2191" x2="98.8324" y1="138.2191" x1="55.5519" gradientUnits="userSpaceOnUse" id="SVGID_25_">
		<stop style="stop-color:#FDC71F" offset="0"></stop>
		<stop style="stop-color:#EBB300" offset="1"></stop>
	</linearGradient>
	<path d="M98.8,137.9c-2.2,0.6-4.4,1.3-6.7,2.1c-0.3,0.1-0.7,0.2-1,0.3c-18.4,6.4-31.4-1.2-35.6-4.3
		c4.4-1.6,10.8-4.7,21-0.1C84.8,139.7,90.6,139.3,98.8,137.9z" class="st46"></path>
	<g>
		<g>
			<g>
				<path d="M87.6,153.4c-1,0-1.9-0.4-2.7-1.3c-1-1.1-1.5-2.5-1.7-4.1c-0.3-3.4,0-6.8,1-10.2c1-3.3,3-5.7,6-7.3
					c0.8-0.4,1.5-0.9,2-1.3c0.4-0.3,0.7-0.7,0.9-1.4l8.8-27.6c1.1-3.4,2.1-6.7,3.2-10.1c0.2-0.6,0.5-1.1,0.8-1.5
					c0.7-0.9,1.8-1.2,2.8-0.8c1.1,0.4,1.7,1.2,1.7,2.4c0,0.5-0.1,1.1-0.3,1.6c-0.4,1.3-0.9,2.5-1.3,3.7l-5.4,14.8c0,0,0,0.1,0,0.1
					l-1.7,4.7c-1.7,4.6-3.3,9.1-5,13.7c-0.3,0.9-0.3,1.8,0,2.6c0.3,0.7,0.6,1.5,0.9,2.2c1.1,2.5,1.2,5.1,0.4,7.7
					c-1.3,4-3.4,7.4-6.3,10.2c-0.9,0.8-2,1.4-3.3,1.7C88.1,153.4,87.8,153.4,87.6,153.4z M107.8,89.2c-0.3,0-0.6,0.1-0.8,0.4
					c-0.2,0.3-0.4,0.6-0.5,1c-1.1,3.4-2.1,6.7-3.2,10.1l-8.8,27.6c-0.3,0.9-0.8,1.6-1.5,2.1c-0.6,0.4-1.4,0.9-2.2,1.4
					c-2.7,1.4-4.4,3.5-5.3,6.4c-1,3.2-1.3,6.4-0.9,9.6c0.1,1.3,0.6,2.4,1.4,3.3c0.6,0.7,1.2,0.9,2.1,0.7c1.1-0.2,1.9-0.6,2.6-1.3
					c2.7-2.7,4.7-5.9,6-9.6c0.7-2.3,0.6-4.5-0.3-6.7c-0.3-0.7-0.6-1.5-0.9-2.3c-0.5-1.2-0.5-2.4,0-3.7c1.7-4.5,3.3-9.1,5-13.6
					l1.7-4.6c0,0,0-0.1,0-0.1l5.4-14.9c0.5-1.2,0.9-2.5,1.3-3.7c0.1-0.4,0.2-0.8,0.2-1.1c0-0.5-0.3-0.9-0.8-1.1
					C108.1,89.3,108,89.2,107.8,89.2z" class="st34"></path>
			</g>
		</g>
	</g>
	<g>
		<g>
			<path d="M111.2,83.1h-0.2c-7.5,0-18.7-1.3-18.7-5c0-3.8,11.9-4.7,14.2-4.8c0.4,0,0.7,0.3,0.8,0.7
				c0,0.4-0.3,0.7-0.7,0.8c-9.1,0.5-12.9,2.5-12.9,3.4c0,1.2,5.9,3.5,17.3,3.5h0.2c0.4,0,0.7,0.3,0.7,0.7
				C111.9,82.8,111.5,83.1,111.2,83.1z" class="st34"></path>
		</g>
	</g>
	<g>
		<g>
			<path d="M117.9,82.8c-0.4,0-0.7-0.3-0.7-0.6c0-0.4,0.2-0.7,0.6-0.8c7.8-0.8,10.4-2.5,10.4-3.2c0-0.4-0.9-1.3-4-2.1
				c-2.9-0.8-6.8-1.2-11.1-1.4c-0.4,0-0.7-0.3-0.7-0.7c0-0.4,0.4-0.7,0.7-0.7c6.1,0.2,16.5,1.4,16.5,4.9
				C129.7,81.3,121.5,82.4,117.9,82.8C118,82.8,117.9,82.8,117.9,82.8z" class="st34"></path>
		</g>
	</g>
	<g>
		<g>
			<path d="M107.1,76.7c-0.2,0-0.3,0-0.5-0.1c-0.3-0.2-0.6-0.5-0.6-0.9v-3.9c0-0.4,0.2-0.8,0.6-1
				c0.4-0.2,0.8-0.1,1.1,0.1l2.6,2.1c0.3,0.2,0.4,0.5,0.4,0.9c0,0.3-0.2,0.6-0.5,0.8l-2.6,1.8C107.5,76.6,107.3,76.7,107.1,76.7z
				 M107.5,72.6v2.4l1.6-1.1L107.5,72.6z" class="st34"></path>
		</g>
	</g>
	<g>
		<g>
			<path d="M117.4,85.3c-0.2,0-0.5-0.1-0.7-0.2l-2.6-2.1c-0.3-0.2-0.4-0.5-0.4-0.9c0-0.3,0.2-0.6,0.5-0.8l2.6-1.8
				c0.3-0.2,0.7-0.2,1.1-0.1c0.3,0.2,0.6,0.5,0.6,0.9v3.9c0,0.4-0.2,0.8-0.6,1C117.7,85.2,117.6,85.3,117.4,85.3z M115.5,82.1
				l1.6,1.3v-2.4L115.5,82.1z" class="st34"></path>
		</g>
	</g>
	<path d="M74.5,143.6" class="st47"></path>
	<path d="M71.6,115.7c-1.5,0-2.8,1.2-2.8,2.8c0-1.5-1.2-2.8-2.8-2.8c1.5,0,2.8-1.2,2.8-2.8
		C68.9,114.5,70.1,115.7,71.6,115.7z" class="st34"></path>
	<path d="M124,107.6c-0.9,0-1.7,0.7-1.7,1.7c0-0.9-0.7-1.7-1.7-1.7c0.9,0,1.7-0.7,1.7-1.7
		C122.3,106.9,123.1,107.6,124,107.6z" class="st34"></path>
	<g>
		<g>
			<path d="M87.1,99.5h-1.7c-0.1,0-0.2-0.1-0.2-0.2c0-0.1,0.1-0.2,0.2-0.2h1.7c0.1,0,0.2,0.1,0.2,0.2
				C87.3,99.4,87.2,99.5,87.1,99.5z" class="st34"></path>
		</g>
		<g>
			<path d="M84.4,99.5h-1.7c-0.1,0-0.2-0.1-0.2-0.2c0-0.1,0.1-0.2,0.2-0.2h1.7c0.1,0,0.2,0.1,0.2,0.2
				C84.6,99.4,84.5,99.5,84.4,99.5z" class="st34"></path>
		</g>
		<g>
			<path d="M84.9,99c-0.1,0-0.2-0.1-0.2-0.2v-1.7c0-0.1,0.1-0.2,0.2-0.2s0.2,0.1,0.2,0.2v1.7C85.1,98.9,85,99,84.9,99z" class="st34"></path>
		</g>
		<g>
			<path d="M84.9,101.7c-0.1,0-0.2-0.1-0.2-0.2v-1.7c0-0.1,0.1-0.2,0.2-0.2s0.2,0.1,0.2,0.2v1.7
				C85.1,101.6,85,101.7,84.9,101.7z" class="st34"></path>
		</g>
	</g>
	<path d="M126.5,131.8c-0.1,1.9-0.3,3.7-0.6,5.5c-0.7,4.7-2,9-4,12.8c-5.2,10.1-15.1,16.7-31.1,16.7
		c-13.8,0-23.4-5.5-29.2-14.1c-0.1-0.2-0.2-0.4-0.4-0.5c0,0,0,0,0,0c-2.4-3.7-4-7.9-5.1-12.5c-0.2-0.8-0.3-1.6-0.5-2.4
		c-0.1-0.4-0.1-0.8-0.2-1.2c4.1,3,16.1,10,33.2,5c0.8-0.2,1.6-0.5,2.4-0.8c0.3-0.1,0.7-0.2,1-0.3c2.3-0.8,4.5-1.5,6.7-2.1
		C116.7,131.9,122.4,131.3,126.5,131.8z" class="st48"></path>
	<g>
		<g>
			<path d="M90.8,169.4c-24,0-38.9-15.2-39.9-40.5c0-0.9,0.3-1.7,0.9-2.4c0.6-0.6,1.4-1,2.3-1h73.4
				c0.9,0,1.7,0.4,2.3,1c0.6,0.6,0.9,1.5,0.9,2.4c-0.4,11.9-3.8,21.8-9.8,28.7C114,165.4,103.9,169.4,90.8,169.4z M54.1,126.9
				c-0.5,0-1,0.2-1.3,0.6c-0.3,0.4-0.5,0.8-0.5,1.3c1,24.5,15.4,39.2,38.5,39.2c32.3,0,38-24.5,38.5-39.2c0-0.5-0.2-1-0.5-1.3
				c-0.3-0.4-0.8-0.5-1.3-0.5H54.1z" class="st34"></path>
		</g>
	</g>
	<g>
		<g>
			<g>
				<path d="M123.3,153.9c-0.4,0-0.7-0.3-0.7-0.7c0-0.4,0.3-0.7,0.7-0.8c8.9-0.8,15.8-5.9,16.2-12.2
					c0.2-2.7-0.4-4.9-1.6-6.3c-1.4-1.5-3.4-1.8-4.8-1.8c-1,0-2,0.2-2.9,0.6c-0.4,0.2-0.8,0-0.9-0.4c-0.2-0.4,0-0.8,0.4-0.9
					c1.1-0.5,2.3-0.7,3.5-0.7c1.7,0,4.1,0.4,5.8,2.2c1.5,1.7,2.2,4.2,2,7.3C140.4,147.3,133,153,123.3,153.9
					C123.3,153.9,123.3,153.9,123.3,153.9z" class="st34"></path>
			</g>
			<g>
				<path d="M121,159.2c-0.7,0-1.4,0-2-0.1c-0.4,0-0.7-0.4-0.7-0.8c0-0.4,0.4-0.7,0.8-0.7c0.6,0,1.2,0.1,1.9,0.1
					c12.6,0,23-7.5,23.6-17.2c0.4-5.4-1.4-8.5-3-10.2c-2.1-2.2-5.1-3.5-8.6-3.5c-1.3,0-2.5,0.2-3.7,0.6c-0.4,0.1-0.8-0.1-0.9-0.5
					c-0.1-0.4,0.1-0.8,0.5-0.9c1.3-0.4,2.7-0.6,4.1-0.6c3.9,0,7.3,1.4,9.7,3.9c1.8,1.9,3.8,5.4,3.4,11.3
					C145.4,151.3,134.6,159.2,121,159.2z" class="st34"></path>
			</g>
		</g>
	</g>
	<g class="st9">
		<path d="M132.3,127.7c0,0,7.9-0.2,10.5,6.6C142.8,134.3,140.1,129.2,132.3,127.7z" class="st34"></path>
		<path d="M141.7,145c0,0-2.7,7.7-13.5,10.1C128.2,155.1,137.5,151.5,141.7,145z" class="st34"></path>
	</g>
	<ellipse ry="3.6" rx="24" cy="181.9" cx="90.8" class="st34"></ellipse>
	<path d="M90,132.8c0,0,0.7,1.1-0.5,2.7c0,0,0.1,0.2,0.1,0.5c0,0.5-0.1,1.1-0.8,1.6c0,0,0.2,1.4-0.9,2.4
		c0,0,1,0.4,0.9,1.1l0,0c-4.1,1.2-7.9,1.7-11.4,1.7c-11.1,0.1-18.8-4.5-21.9-6.7c0,0,0.5-2.1,3-2.3c0,0,0.1,0,0.1,0
		c0,0,0.2-0.6,0.7-0.9c0.2-0.1,0.5-0.2,0.9-0.2c0,0,1.4-2.4,4.9-2.2c3.6,0.3,4.2,1.3,4.2,1.3s1.7-0.5,2.7-0.2c0,0,1.8-0.7,2.9,0
		c0,0,2.3-1.1,4.4,0.1c0,0,1.3-0.6,3.1,0.2c0,0,1.1-1.9,3.5-1.6c0,0,0.8-0.9,2.5-0.3c0,0,2.7-1.1,3.5-0.4
		C92.8,130.3,91.5,131.9,90,132.8z" class="st49"></path>
	<path d="M126.5,131.8c0,0-21.2,3.6-30.2,6.8c-0.4,0.1,0.4-2.8-0.3-4c-0.7-1.1-0.3-3.6,0.2-3.5c0.5,0.1,1,2.4,2.4,2.7
		c1.4,0.3,2.2-1.3,4.5-0.7c0,0,2.5-1.6,4.9-0.8c0,0,2-2.2,5-1.5c0,0,1.1-0.1,2.5-0.1c0.4,0,0.9,0,1.4,0c0,0,0,0,0,0h0c0,0,0,0,0,0
		c1.1,0,2.3,0.1,3,0.3C122.1,131.7,125.7,131.2,126.5,131.8z" class="st49"></path>
	<circle r="0.3" cy="130.5" cx="69.2" class="st49"></circle>
	<circle r="0.3" cy="135.3" cx="99.5" class="st49"></circle>
	<circle r="0.3" cy="133.7" cx="68.7" class="st49"></circle>
	<circle r="0.3" cy="131.4" cx="106.9" class="st49"></circle>
	<circle r="0.5" cy="129.5" cx="83.8" class="st49"></circle>
	<circle r="0.5" cy="133.4" cx="78.3" class="st49"></circle>
	<circle r="0.5" cy="131" cx="102.9" class="st49"></circle>
	<circle r="0.2" cy="131.6" cx="58.5" class="st49"></circle>
	<path d="M88.8,137.6c0,0,0.2,1.4-0.9,2.4c0,0,1,0.4,0.9,1.1l0,0c-4.1,1.2-7.9,1.7-11.4,1.7
		c-11.1,0.1-18.8-4.5-21.9-6.7c0,0,0.5-2.1,3-2.3c0,0,0.1,0,0.1,0c0,0,0.2-0.6,0.7-0.9l0.9-0.2c0,0,0.4,2.7,3.4,3.4
		c0,0,0.8,1.7,4.1,1.9c0,0,3.6,2.3,7.2,1.6c0,0,1.3,1.1,3.7,0.9c2.4-0.2,2.7-1.5,2.7-1.5s1.7,1.2,3.5,0.5c1.8-0.7,2.2-2.4,2.2-2.4
		s0.5,0.4,2.1-1c0.1-0.1,0.3-0.2,0.4-0.2C89.6,136.4,89.5,137.1,88.8,137.6z" class="st49"></path>
	<path d="M102.4,134.7c0,0,0-0.1,0.1-0.2C102.6,134.9,102.4,134.7,102.4,134.7z" class="st49"></path>
	<path d="M113.1,131c0,0,1.1-0.1,2.5-0.1c-1.4,0.1-2.9,0.6-3.4,0.4c-0.7-0.2-2,1.2-3,1.1c-1-0.1-1.9,0.8-1.9,0.8
		s-2.3-0.3-3.3,0c-0.8,0.2-1.3,0.9-1.4,1.2c0,0,0-0.1-0.1-0.2c-0.2-0.7,0.7-1,0.7-1s2.5-1.6,4.9-0.8
		C108,132.5,110.1,130.3,113.1,131z" class="st49"></path>
	<path d="M117,130.9C117,130.9,116.9,130.9,117,130.9L117,130.9C116.9,130.9,116.9,130.9,117,130.9
		C117,130.9,117,130.9,117,130.9z" class="st49"></path>
</g>
</svg>
